/* XPM */
static char *birder1639763319[] = {
/* columns rows colors chars-per-pixel */
"50 50 101 2 ",
"   c #3E3C39",
".  c #403D36",
"X  c #413E3B",
"o  c #43423D",
"O  c #48433E",
"+  c #474541",
"@  c #494542",
"#  c #4F4F4D",
"$  c #514E4C",
"%  c #4F504A",
"&  c #53524D",
"*  c #59594F",
"=  c #4F4A51",
"-  c #524F50",
";  c #584F52",
":  c #565452",
">  c #595654",
",  c #575852",
"<  c #5A5955",
"1  c #5A5659",
"2  c #565A5C",
"3  c #5C5B59",
"4  c #605D5A",
"5  c #62635D",
"6  c #666564",
"7  c #686666",
"8  c #666865",
"9  c #6A6A66",
"0  c #656469",
"q  c #69676A",
"w  c #666968",
"e  c #6C6B6B",
"r  c #706F6E",
"t  c #72716E",
"y  c #6D6C71",
"u  c #716F72",
"i  c #747071",
"p  c #757479",
"a  c #7C777D",
"s  c #7D7B7D",
"d  c #817C7E",
"f  c #83817D",
"g  c #7E7B82",
"h  c #837D84",
"j  c #897F87",
"k  c #847E89",
"l  c #817C90",
"z  c #848185",
"x  c #898485",
"c  c #8A8987",
"v  c #868289",
"b  c #89838B",
"n  c #8D888C",
"m  c #8A8490",
"M  c #8B8891",
"N  c #97A8AF",
"B  c #9EA9AF",
"V  c #9CA8B6",
"C  c #9CAAB9",
"Z  c #A1A6A9",
"A  c #A2AAAE",
"S  c #A9AAAA",
"D  c #A3ABB0",
"F  c #A7B8BF",
"G  c #9AB2C4",
"H  c #BDD4F3",
"J  c #DADBDD",
"K  c #C4D7E5",
"L  c #CFD5E3",
"P  c #CCD3ED",
"I  c #C7DAE8",
"U  c #D1D2E4",
"Y  c #D5DAE5",
"T  c #DADDE4",
"R  c #D4DDEE",
"E  c #DCDBE9",
"W  c #C2D7F6",
"Q  c #CED3F4",
"!  c #C4DCF6",
"~  c #CEDBF6",
"^  c #CDD6FD",
"/  c #CCDBFC",
"(  c #D3D6F7",
")  c #D1DAF5",
"_  c #D0D6F8",
"`  c #D2DDFE",
"'  c #CCE2FF",
"]  c #D7E2F4",
"[  c #DBE3F0",
"{  c #D7E2FF",
"}  c #E2E5EE",
"|  c #F5FBED",
" . c #F9FDEF",
".. c #EFFFFF",
"X. c #F6F6F6",
"o. c #FDF7F3",
"O. c #F7FCF4",
"+. c #FCFDF6",
"@. c #F3F6FA",
"#. c #F5FCFD",
"$. c #FEFEFE",
/* pixels */
"$.$.$.$.$.$.$.$.$.$.K #.$.o.$.+.$.$.$.$.$.$.$.$.$.$.$.$.$.$.$.+.$.+.$.$.$.$.$.$.$.#.I #.$.+.$.+.$.$.",
"$.$.$.$.$.$.$.$.$.$./ ` +.+.$.O.$.$.$.$.$.$.$.$.$.$.$.$.$.$.$.$.+.$.$.$.$.$.$.$.$.$.{ ^ O.+.$.X.$.$.",
"+.$.+.$.$.$.$.$.$.| P ` #.#._ $.$.$.$.$.$.$.$.$.$.$.$.$.$.$.#.R +.$.$.$.$.$.$.$.$.| P ` #.#.( $.$.$.",
"$.X.$.$.$.$.$.$.$.+.$.~ G ' Q $.$.$.$.$.$.$.$.$.$.$.$.$.+.$.#.~ $.@.$.$.$.$.$.$.$.+.$.~ G ' Q +.$.$.",
"$.E $.$.$.$.$.$.$.$.+.B ! H V $.$.$.$.$.$.$.$.$.$.$.$.$.+.+.$.~ $.E $.$.$.$.$.$.$.$.$.B ! H V $.$.$.",
"$.L $.$.$.$.+.$. .$.$.$.V F $.$.$.$.$.$.$.$.$.$.$.$.$.$.$.$.#.R $.L $.$.$.$.+.$. .$.$.$.V F $.$.$.$.",
"#.} $.$.$.$.$.$.$.$.$.X.$.$.$.$.$.$.$.$.$.$.$.$.$.$.$.+.$.$.$.$.$.} $.$.$.$.$.$.$.$.$.X.$.$.$.$.$.$.",
"#.$.$.+.$.$.$.$.$.+.$.$.$.$.$.$.$.$.$.$.$.$.$.$.$.$.$.$.$.$.$.$.$.#.$.+.+.$.$.$.$.+.+.$.$.$.$.$.$.$.",
"X.$.$.$.$.$.X.$.$.$.$.$.$.$.$.$.$.$.$.$.$.$.$.$.$.#.$.$.$.$.$.$.$.$.X.$.$.$.$.$.$.$.$.$.$.$.$.$.$.$.",
"$.$.$.X.$.$.$.$.$.+.$.+.$.$.$.$.+.+.$.$.$.$.$.$.#.J $.X.$.$.$.X.X.$.$.X.$.$.$.$.$.$.$.X.$.$.$.$.$.$.",
"$.$.X.$.$.$.$.$.$.> 1 : : 3 $ 3 < > < ; * < & & 3 : < : & & $.$.$.+.: , * : : > : $.$.$.$.$.X.$.$.$.",
"$.$.X.$.$.$.$.$.: x d s n a e - ; > 5 4 & > > < : 1 6 3 & < < o o @ : w 5 t 7 h h 1 $.$.$.X.$.X.$.$.",
"$.$.$.X.$.$.$.$.; x k k g b v x z h b z s z h h h k b 0 r e 6 $ X & e y v a k k d > $.$.$.$.$.$.$.$.",
"$.X.$.$.X.$.$.$.1 a k b k h g h x z h g k v x g k g x v q 0 r 4 4 8 e v g v v v x : $.$.X.$.$.$.$.$.",
"$.$.$.X.$.$.X.$.: x b g k k b k 0 y q e e y s k h x z g v 7 e : & 6 e g g y q g h 1 $.$.$.$.X.$.$.$.",
"$.$.$.S $.$.$.$.> f g z k k z z v v 0 y g g b g k h v g e r & X * * w w y e z z z : $.$.$.X.$.$.$.$.",
"$.#.A #.D $.$.$.1 x 7 e e e b s h k h x j k h j w 8 r 9 : 3 X X O & 3 & < 9 8 9 f 1 $.$.$.X.$.$.$.$.",
"$.$.$.D $.@.$.$.$.> > : > $ : i w e u q 7 9 1 ; < < , & + * & < & O & < * & > < 3 +.$.$.$.$.$.$.$.$.",
"$.X.$.#.$.$.$.+.+.: o > : 3 @ & > & < $ : < @ X : * : , & * 4 w e < , 3 & , <   > $.X.$.$.$.$.$.#.$.",
"$.$.$.$.$.@.$.$.< d > 7 e 8 : < * o . O & * $ < q e e r w < 5 8 w q e a s x z > x 1 $.$.X.$.$.$.] #.",
"$.$.$.$.X.$.$.$.1 x h k b k v w 8 < + : 7 6 u h k h g s p 6 y e m v g v h g b k d > $.$.$.$.$.$.P #.",
"$.$.X.$.$.$.$.$.1 h b h k g x s q w # < e e s v x k k k g u g g g k k l m h g k h 2 $.$.$.$.$.$.[ $.",
"$.$.$.X.$.$.$.$.1 d h h k x f e e y > : 8 r g v h h z x k g v z j j k a k m k v d < X.$.$.X.$.$.X.$.",
"$.X.$.$.$.$.T $.& j j d v e 8 e w 8 : @ : 6 y k k h j k h h x h h h x h k k s x z > $.$.$.$.$.$.$.$.",
"$.$.$.$.$.L #.) ; f > t w 6 9 9 8 : o O X : q q w e w e q k h g g u w 6 r w 5 3 h > $.X.$.$.$.$.$.$.",
"$.$.$.+.@.$.L $.$.& , : > > < > : o   , < O & * * > > 3 : e e u i % < < < * , & > $.$.$.$.X.$.$.$.X.",
"$.$.+.$.+.$.@.$.+.< > : < & ; * , , , 8 9 % 3 < : > & * % 3 & $ :   , , & & * < 1 $.$.$.X.$.$.#.$.$.",
"$.X.$.+.+.O.$.$.> x d s k x x e 8 r w w e 3 w 0 w e r 6 , & O O + , 9 w e r q a h - $.$.$.$.#.D $.$.",
"$.$.$.$.$.$.X.$.- v k k b a g v z h g z s y e g v g y w e e & o % e e h s k g b h : $.X.$.$.Z #.S X.",
"$.$.$.$.$.$.$.$.1 a x k k M v g v g g M k s y v k v g r w 8 > * w y w v g k k h x > $.$.X.$.$.A $.$.",
"$.@.$.$.$.$.$.$.3 x g g y g g v g h v h k k g x k v g e e w < & e e e g v k v k h : $.$.$.$.$.$.$.$.",
"$.$.$.$.$.$.$.$.: z x q e g v z z v h h b h v h k v s 8 e 8 & O , w e w z k s x h < X.$.$.+.$.$.$.$.",
"$.+.$.$.$.$.$.$.3 s q w < r d v z v g z g x h k d e 9 e & & o o o & : w e x s w d 3 K #.$.+.$.O.$.$.",
"$.$.$.$.$.$.$.$.$.3 < : < 5 q y 9 6 2 < > < > > < & & * @ 3 : > * < < < : > 3 , > $.{ ^ $.+.$.$.$.$.",
"+.$.$.$.$.$.$.$.+.* o & * < < $ , , < , : % : * > : 1 > $ e e q 9 8 6 > < & : X 1 +.P ` #.#.Q $.$.$.",
"$.X.$.$.$.$.$.$.4 s > & * &   @ o , 9 5 3 < 6 e x d g x d k h x x z z a x z s 4 l < $.) G W _ +.$.$.",
"$.E $.$.$.$.$.$.: g h e 6 t < X : e s e w q s z v h k b k h d k k h h k b h k h v > +.V ! ' C $.$.$.",
"$.U $.$.$.$.+.$.> z M g e 9 : : e s g y u a z k h k h k k x h k k k k b g h j l f = +.$.C N $.$.$.$.",
"$.} $.#.$.$.$.$.1 k g h r 6 < < e x z a k b k k k b k h k k k h k b k j g k j g x > $.$.#.+.$.$.$.$.",
"$.#.$.+.$.$.$.$.> h k e w * . ; 6 z z k x v g v h h h h x h h j x h d j k h j j k : $.$.+.$.$.+.$.$.",
"X.$.$.X.$.$.X.$.* d > > & @ o : 3 6 e w w w e 9 w q 9 9 f z q y e s d c 6 w y : s 3 $.$.$.$.$.$.$.$.",
"$.$.$.$.$.$.$.$.$.> : < : > o.+.& : < < : < > : 2 2 1 : > : & : < 3 > & < : : : : $.$.$.$.$.X.$.$.$.",
"$.$.$.$.$.$.X.$.$.$.$.$.$.$.$.$.$.$.$.$.$.$.$.$.T $.$.$.$.$.$.+.$.$.$.$.$.$.$.$.$.$.$.X.$.$.$.$.$.$.",
"$.$.X.$.$.$.$.$.$.$.$.X.$.X.$.$.$.$.$.$.$.$.$.$.#.Y $.$.+.$.X.$.$.X.$.$.X.$.$.$.$.$.$.$.$.X.$.$.$.$.",
"$.$.$.X.$.$.$.$.$.$.$.$.$.$.$.$.$.$.$.$.$.$.$.$.$.$.#.@.$.$.$.$.$.$.$.X.$.$.$.$.$.X.$.$.X.$.X.$.$.$.",
"$.X.$.$.X.$.$.$.$.$.$.$.$.X.X.$.$.$.$.$.$.$.$.$.$.X.$.$.$.$.$.$.$.$.X.$.$.$.$.$.$.$.$.X.$.$.$.$.$.$.",
"$.$.$.X.$.$.X.$.$.$.$.$.$.$.$.$.$.$.$.$.$.$.$.$.+.$.$.$.$.$.$.$.$.$.$.$.$.$.$.$.$.$.$.$.X.$.$.$.$.$.",
"$.$.$.S $.$.$.$.$.$.$.o.$.+.$.$.$.$.$.$.$.$.$.$.$.X.$.$.$.$.X.$.$.$.$.S $.$.$.$.$.$.$.$.$.$.$.$.$.$.",
"$.$.D #.Z $.$.$.$.$.$.$.$.$.$.$.$.$.$.$.$.$.$.$.$.$.$.$.$.$.$.$.$.#.D $.B $.$.$.$.$.$.$.$.$.$.$.$.$.",
"+.$.#.D $.X.$.$.$.$.$.$.$.$.$.$.$.$.$.$.$.$.$.$.$.$.$.$.$.$.$.$.+.$.#.D $.@.$.$.$.$.$.$.$.$.$.$.$.$."
};
