/* XPM */
static char *c1639764979[] = {
/* columns rows colors chars-per-pixel */
"50 50 148 2 ",
"   c #2E2E2D",
".  c #3C3B36",
"X  c #43403B",
"o  c #514D42",
"O  c #5F5949",
"+  c #655E4C",
"@  c #696451",
"#  c #C62F36",
"$  c #C92F37",
"%  c #C92F39",
"&  c #C73037",
"*  c #C93035",
"=  c #C73139",
"-  c #C83138",
";  c #C93D42",
":  c #CB4145",
">  c #CE4A46",
",  c #CC464B",
"<  c #CB484D",
"1  c #D1524B",
"2  c #CE4D51",
"3  c #D04F54",
"4  c #CE5155",
"5  c #CE5459",
"6  c #D1585D",
"7  c #D15D60",
"8  c #D36266",
"9  c #D0656B",
"0  c #D1686C",
"q  c #D97661",
"w  c #DE7F6D",
"e  c #D56B71",
"r  c #D96F73",
"t  c #D37377",
"y  c #DA7679",
"u  c #DB787B",
"i  c #8D8167",
"p  c #B7A87D",
"a  c #B8A97E",
"s  c #E0866B",
"d  c #E28D70",
"f  c #E69C79",
"g  c #E9A47D",
"h  c #D97F81",
"j  c #A4B2BF",
"k  c #B6BBBF",
"l  c #D78287",
"z  c #DB868B",
"x  c #DC979C",
"c  c #D2999F",
"v  c #DA9C9F",
"b  c #E19295",
"n  c #E29A9C",
"m  c #C6B486",
"M  c #CBB989",
"N  c #EAA681",
"B  c #EAAC83",
"V  c #DFADB0",
"C  c #E7A9AD",
"Z  c #EAB3B6",
"A  c #EBB7B9",
"S  c #E2BABE",
"D  c #D8C290",
"F  c #F2C794",
"G  c #F8D59D",
"H  c #F0D89C",
"J  c #F9DAA1",
"K  c #FBE3A5",
"L  c #FBE4AE",
"P  c #FCE6B4",
"I  c #FAE7BC",
"U  c #FCEABD",
"Y  c #B3BCC1",
"T  c #B5BDD0",
"R  c #BDC6D7",
"E  c #BBC9D4",
"W  c #B7C6E5",
"Q  c #C5CACD",
"!  c #C5CCD3",
"~  c #CBCED2",
"^  c #CED2D4",
"/  c #C4D5DF",
"(  c #CCD0DB",
")  c #D0D3D5",
"_  c #D1D6D9",
"`  c #D5DADD",
"'  c #D9DEDF",
"]  c #E4C1C7",
"[  c #E4C6C8",
"{  c #EFC5C9",
"}  c #E6CCCF",
"|  c #F2CACC",
" . c #E9CFD2",
".. c #F2CFD3",
"X. c #E8D8DB",
"o. c #F1D1D2",
"O. c #F4D6D8",
"+. c #F4DADB",
"@. c #DEE0DF",
"#. c #FBECC5",
"$. c #FCEEC9",
"%. c #FCF1D5",
"&. c #FDF3DA",
"*. c #CFD6E0",
"=. c #CEDBEE",
"-. c #D5D8E1",
";. c #DEDFE1",
":. c #D6DDEC",
">. c #D9DEEA",
",. c #C8D7F6",
"<. c #CFD8F9",
"1. c #DBDEF1",
"2. c #D1DFFC",
"3. c #E8DFE2",
"4. c #DDE2E5",
"5. c #D7E3F1",
"6. c #DEE6F3",
"7. c #DDE4FF",
"8. c #DEE9FB",
"9. c #E4E5E5",
"0. c #E9E0E1",
"q. c #E2E7ED",
"w. c #E6E9E9",
"e. c #EBEAEC",
"r. c #F4E0E1",
"t. c #F8E6E6",
"y. c #FBEEEE",
"u. c #EEF0EF",
"i. c #F6F2E7",
"p. c #FEF7E5",
"a. c #FFF8EE",
"s. c #E3E6F4",
"d. c #E5EAF4",
"f. c #EAEDF4",
"g. c #E5E7FD",
"h. c #E5E9FA",
"j. c #E9EDFC",
"k. c #EDF2F5",
"l. c #EDF2FD",
"z. c #EEFAFC",
"x. c #F1F3F4",
"c. c #FBF4F3",
"v. c #F7FBF6",
"b. c #FDFDF6",
"n. c #F2F5FC",
"m. c #FAF7FE",
"M. c #F1FBFD",
"N. c #FEFEFE",
/* pixels */
"m.N.N.b.N.N.m.N.N.N.N.N.N.N.N.N.N.N.N.n.N.N.M.N.N.N.N.N.N.N.N.N.N.N.N.N.N.N.N.N.N.N.N.N.N.N.N.M.N.N.",
"N.N.N.b.N.N.N.N.N.N.N.N.N.N.N.N.N.v.n.^ 4.m.N.b.N.N.N.N.N.N.N.N.N.N.N.v.N.N.N.N.N.N.N.N.N.N.f.^ @.N.",
"N.N.N.N.N.N.N.N.N.N.N.N.N.N.N.N.N.N.;.` Q N.b.N.N.N.N.b.N.N.N.N.N.N.N.N.N.N.N.N.N.N.N.N.N.N.e.~ ^ x.",
"N.N.N.N.n.m.N.b.N.N.N.N.N.N.N.N.N.v.N.4.n.v.N.N.N.N.N.N.N.N.N.N.M.M.N.N.N.N.N.N.N.N.N.N.N.N.M.w.u.N.",
"N.N.N.j.s.l.N.N.N.N.N.N.N.N.N.N.N.N.N.N.N.N.N.N.N.N.v.N.N.N.M.n.s.l.N.N.N.N.N.N.N.N.N.N.N.N.N.N.N.N.",
"N.M.l.6.s.M.N.N.N.N.N.N.N.N.N.N.N.N.b.N.N.N.N.N.N.N.N.N.N.N.l.6.f.n.N.N.N.N.N.N.N.N.N.N.N.N.N.N.N.N.",
"N.N.l.f.l.N.N.N.N.N.N.N.N.N.N.N.N.N.N.N.N.N.N.N.N.N.N.N.N.N.n.f.m.N.N.N.N.N.N.N.N.N.N.N.N.N.N.N.N.N.",
"M.N.N.N.N.N.m.N.N.N.N.N.N.N.N.N.N.N.N.N.N.N.N.N.N.N.N.v.N.N.N.N.N.N.N.N.N.N.N.N.N.N.N.N.v.N.N.N.N.N.",
"N.N.N.N.v.N.N.N.N.N.N.N.N.N.N.N.N.N.N.N.N.j.h.n.N.N.N.N.b.N.b.N.N.N.N.N.N.N.N.N.N.N.N.N.N.N.N.N.N.M.",
"N.N.N.N.N.N.N.N.N.N.N.N.N.N.N.N.N.N.N.N.N.k.s.n.N.N.v.b.N.N.N.N.N.N.N.N.N.N.N.N.N.N.N.N.N.N.N.N.n.j.",
"N.M.N.N.N.N.N.N.N.N.N.N.N.N.N.N.N.N.N.N.N.M.n.M.N.N.N.N.N.M.m.N.N.N.N.N.N.N.N.N.N.N.N.N.N.N.N.N.b.N.",
"N.l.' N.m.N.b.N.N.N.N.N.N.N.N.N.N.N.N.N.N.y.C b y r z n  .N.^ N.N.N.N.N.N.N.N.N.N.N.N.N.N.N.N.N.N.N.",
"N.Q ) ` N.N.N.N.N.N.N.N.N.N.N.N.N.N.y.: = = v } z.M.3.[ < & & c c.N.N.N.N.N.N.N.N.N.N.N.N.N.N.N.b.N.",
"M.6.) x.N.N.N.N.N.N.N.N.N.N.N.N.O.$ = ; V M.M.M.M.z.M.M.z.k.z $ = u t.N.N.N.N.N.N.N.N.N.N.N.N.N.b.b.",
"N.b.N.N.N.N.N.N.N.N.N.N.N.N.N.Z : $ = [ z.M.z.M.z.M.M.z.z.z.z.= & & 5 N.N.N.N.N.N.N.N.N.N.N.N.N.N.N.",
"N.N.N.N.N.N.N.v.N.N.N.N.N.N.C * & = v z.M.M.z.M.z.M.M.z.M.z.z.z.e * - 4 N.N.N.N.N.N.N.N.N.N.N.N.N.N.",
"N.N.b.N.N.N.N.N.N.N.N.N.N.{ ; & & 5 e.M.z.M.z.z.M.M.M.M.z.M.M.z.X.& $ = o.N.N.N.N.N.N.N.N.N.N.v.N.N.",
"N.q.N.v.N.N.v.N.N.N.N.N.N.h $ & & } M.z.M.M.M.M.M.z.z.M.M.z.z.M.z.& * & 2 N.N.N.N.N.N.N.d.N.N.N.N.N.",
"7.6.N.N.N.v.N.v.N.N.N.N.N.< & & = e.M.z.M.z.M.z.z.z.M.M.z.z.M.M.z.$ & & = N.N.N.b.N.N.N.>.N.N.N.N.N.",
"2.T n.N.m.N.N.N.N.N.N.N.N.$ $ & & l.M.M.z.M.M.M.M.M.z.M.z.M.M.z.M.& & & = r.N.N.N.b.N.N.:.z.l.N.N.N.",
"j z.N.b.N.b.N.N.N.N.N.N.b.& & & - 0.M.M.z.M.M.z.M.z.M.M.M.M.z.M.z.= $ & - A N.N.N.N.N.n.d.j.d.m.N.N.",
"N.N.v.v.N.N.N.N.N.N.N.N...& & & - l z.M.z.M.z.M.M.M.z.z.z.M.M.z.z.& & & * 0 N.N.N.N.N.m.N.l.f.N.N.N.",
"N.N.v.N.N.v.N.N.N.N.N.N.r = & & * $ 0 z.M.M.z.M.z.M.z.M.z.M.z.e.< * & & - & N.N.N.N.N.N.N.N.M.N.N.N.",
"N.b.N.m.N.N.N.b.N.N.N.N.2 = & & - = & k.z.M.M.z.M.M.M.z.M.z.M.8 & & & & & = N.N.N.N.b.N.N.N.N.N.N.N.",
"N.N.N.N.N.N.N.N.N.M.j.m.& & & & $ & & & 9 z.M.M.z.M.M.z.M.S 4 = & & & & & & N.n.n.N.N.b.N.N.N.N.N.v.",
"N.N.N.N.N.N.N.N.N.M.j.m.* & & & & & & $ $ t k.z.M.M.z.z.S & & & & & & & $ & c.l.m.N.N.N.N.N.N.v.N.N.",
"N.N.N.N.N.N.N.N.N.N.m.m.= & $ & & & & & $ & & & = & & & = * & * & & & & & & ..n.N.N.N.N.N.N.N.N.N.N.",
"N.N.N.N.N.N.N.N.N.N.N.b.= = & & & & & & & & & & = & & = & = & & & & & & & & n N.N.N.N.N.N.N.N.N.N.N.",
"N.N.N.N.N.N.N.N.N.N.N.N.& & & & & & & = & & & & & - & = & & & & & & $ & & * | N.N.N.N.N.N.N.N.M.N.N.",
"N.N.N.N.N.N.N.N.N.N.b.N.e & & & & & $ $ ; f K K K K K K B > = & & & & & & * N.N.N.N.N.N.N.N.k._ 9.N.",
"N.N.N.N.N.v.N.N.b.N.N.N.o.& = $ & & & s F K K K K K K K K G g $ & & & & & , N.N.N.N.N.N.v.N.u.Q ~ x.",
"N.N.N.N.m.N.N.N.N.N.b.N.N.4 & # & q J K K i @ K K K K H   K K K N & & & & b.N.N.N.N.N.N.M.N.N.4.k.N.",
"N.N.M.j.g.M.N.N.N.N.N.N.N.o.: - $ G K K K + X K K K K M   K K K K & * & 6 b.N.N.N.N.N.N.N.N.N.N.b.N.",
"N.N.k.s.s.n.N.N.N.N.N.N.N.N.N.; 1 K K K K X   K K K K a   K K K K d * +.N.N.N.N.N.N.N.N.N.N.N.N.N.N.",
"N.m.n.f.n.m.N.N.N.N.N.N.N.N.N.| w K K K K + . K K K K m   K K K K g 8 N.N.N.N.N.N.N.N.N.N.N.N.N.N.N.",
"N.N.N.N.N.N.N.N.N.N.N.N.N.N.N.N.b.K K K K D a K K K K K o K K K K %.N.N.N.N.N.N.N.N.N.N.N.N.N.N.N.N.",
"N.N.N.b.N.N.N.N.N.N.N.N.N.N.N.N.N.K K K K K K K K K K K K K K K K b.N.N.N.N.N.N.N.N.N.N.N.N.N.N.b.v.",
"N.N.N.b.N.N.N.N.N.N.N.N.N.N.N.N.N.b.I K K K K K K K K K K K K L p.N.N.b.N.N.N.N.N.N.N.N.N.N.N.N.l.g.",
"N.N.v.N.N.N.N.v.N.N.N.N.N.N.N.N.N.v.N.v.%.K K K K K K K K $.i.N.N.N.N.N.N.N.N.N.N.N.N.N.N.N.N.N.N.N.",
"N.x.e.m.N.N.N.N.N.N.N.N.N.N.N.N.N.N.N.N.N.v.$.U P P U #.a.x.9.N.N.N.N.N.N.N.N.N.N.N.N.N.N.N.N.N.N.N.",
"N.( ( 4.N.N.N.N.N.N.N.N.N.N.N.N.N.N.N.N.N.N.N.N.b.N.N.N.N.( ! 4.N.N.N.N.N.N.N.N.N.N.b.N.N.N.N.N.N.N.",
"M.4.-.f.v.N.v.N.N.N.N.N.N.N.N.N.N.N.N.N.N.N.N.N.N.v.b.N.N.' _ q.N.N.N.N.N.N.N.N.N.N.N.N.N.N.N.N.N.N.",
"N.N.x.N.N.N.N.N.N.N.N.N.N.N.N.N.b.N.N.N.N.N.N.N.N.N.N.N.N.v.v.N.N.N.N.N.N.N.N.N.N.N.N.N.N.N.N.N.N.N.",
"b.b.N.N.N.N.N.v.N.N.N.N.N.N.N.N.N.N.N.v.N.N.N.N.N.N.N.N.N.N.N.N.N.N.N.N.N.N.N.N.N.N.N.N.N.N.N.N.N.N.",
"v.v.N.N.N.N.N.N.N.N.N.N.N.N.N.N.N.N.N.N.N.N.N.N.N.j.d.N.N.M.N.N.N.N.N.N.N.N.N.N.N.M.N.N.v.N.N.N.N.N.",
"N.M.N.N.N.N.N.b.N.N.N.N.N.N.N.N.n.N.N.N.N.N.N.N.M.h.1.n.N.l.N.b.N.N.N.N.N.N.N.N.N.N.N.N.n.N.N.N.N.N.",
"h.5.N.N.b.N.N.v.N.N.N.N.N.N.N.v.h.n.N.N.N.N.N.N.N.M.:.=.8.:.m.b.N.N.N.N.N.N.N.N.N.b.N.M.q.N.m.N.N.N.",
"<.R N.b.N.N.N.N.N.N.N.N.N.N.N.N.5.l.M.N.N.N.N.N.N.n./ W ,.E N.N.N.N.N.N.N.N.N.N.b.N.N.N.:.M.n.N.N.N.",
"k w.N.N.N.b.N.N.N.N.N.N.N.N.N.N.s.g.j.N.v.N.N.N.N.N.e.Y Y d.N.N.N.N.N.N.N.N.N.N.b.N.n.m.s.l.d.N.N.N.",
"l.N.N.v.N.N.N.N.N.N.N.N.N.N.N.N.n.j.l.N.N.N.N.N.N.N.N.z.M.N.N.N.N.N.N.N.N.N.N.N.N.N.N.N.l.n.h.N.N.N."
};
