/* XPM */
static char *closed_exit1639764979[] = {
/* columns rows colors chars-per-pixel */
"50 50 126 2 ",
"   c #9455B6",
".  c #9451B8",
"X  c #945CBD",
"o  c #9562BF",
"O  c #955EC0",
"+  c #9565C4",
"@  c #966AC6",
"#  c #976DCA",
"$  c #996DC9",
"%  c #9772CD",
"&  c #9972CE",
"*  c #9774D0",
"=  c #9976D1",
"-  c #997CD5",
";  c #9A7ED8",
":  c #A4B2BF",
">  c #B6BBBF",
",  c #9981D7",
"<  c #9B84DB",
"1  c #9B89DE",
"2  c #AC82CC",
"3  c #A080D3",
"4  c #B396D6",
"5  c #B095D8",
"6  c #B3BCC1",
"7  c #B5BDD0",
"8  c #9C8DE2",
"9  c #9D92E6",
"0  c #9E96E9",
"q  c #9E9BEC",
"w  c #9F9DF0",
"e  c #A094E8",
"r  c #A09DED",
"t  c #A09CF0",
"y  c #9EA1EF",
"u  c #9FA2F2",
"i  c #9FA8F5",
"p  c #9FAFFA",
"a  c #A4A3EF",
"s  c #B6ABE7",
"d  c #BEADE4",
"f  c #B6B5EF",
"g  c #BCB5E9",
"h  c #A0A5F4",
"j  c #A2A9F6",
"k  c #A8ACF5",
"l  c #A1ACFB",
"z  c #ACB4F6",
"x  c #A1B1FE",
"c  c #A8B5FD",
"v  c #ACBBFD",
"b  c #B4B5F2",
"n  c #B3B9F7",
"m  c #BABDF4",
"M  c #B3BDFA",
"N  c #C1A6D9",
"B  c #C5B4E0",
"V  c #C0BEEF",
"C  c #BDC6D7",
"Z  c #BCC8D4",
"A  c #B7C6E5",
"S  c #BFC2F5",
"D  c #BDC8F6",
"F  c #B6C3FA",
"G  c #B8C5FC",
"H  c #BCCBFD",
"J  c #C5CACD",
"K  c #C5CCD3",
"L  c #CBCED2",
"P  c #CED2D3",
"I  c #C6D4DF",
"U  c #CCD0DB",
"Y  c #D0D3D5",
"T  c #D1D6D9",
"R  c #D5DADD",
"E  c #D9DEDF",
"W  c #DEE0DF",
"Q  c #CFC5E7",
"!  c #D1C3E6",
"~  c #CFD6E0",
"^  c #CEDBEE",
"/  c #D5D8E1",
"(  c #DEDFE1",
")  c #D7D1ED",
"_  c #D6DDEC",
"`  c #DBDCED",
"'  c #C1C1F3",
"]  c #C9CBF3",
"[  c #C1CEFC",
"{  c #C8D7F6",
"}  c #C5D2FD",
"|  c #CBD6FC",
" . c #CDDAFC",
".. c #D0D5F5",
"X. c #D4D8F5",
"o. c #DCDDF2",
"O. c #D1DCFB",
"+. c #DCE2E5",
"@. c #D7E3F3",
"#. c #DEE3F4",
"$. c #D6E3FB",
"%. c #DCE5FC",
"&. c #DEEAFC",
"*. c #E1E2E4",
"=. c #E8E7E5",
"-. c #E2E7ED",
";. c #E6E9E9",
":. c #E9EBED",
">. c #EEF0EF",
",. c #E3E6F4",
"<. c #E5EAF4",
"1. c #EAEDF4",
"2. c #E3E7FC",
"3. c #E4ECFB",
"4. c #E9EDFC",
"5. c #EDF1F5",
"6. c #E5F2FB",
"7. c #EBF3FC",
"8. c #EEFAFD",
"9. c #F2F3F3",
"0. c #F7FBF6",
"q. c #FDFDF6",
"w. c #F2F5FC",
"e. c #FBF7FE",
"r. c #F2FBFD",
"t. c #FEFEFE",
/* pixels */
"e.t.t.t.q.t.e.t.t.t.t.t.t.t.t.t.t.e.t.r.t.t.w.t.t.t.t.t.t.t.t.t.t.t.t.t.t.t.t.t.t.t.t.t.t.t.t.r.t.t.",
"t.t.t.q.t.t.t.t.t.t.t.t.t.t.t.t.t.q.7.P +.e.t.t.t.t.t.t.t.t.t.t.t.r.t.t.q.t.t.t.t.t.t.t.t.t.1.P W t.",
"t.t.t.t.t.t.t.t.t.t.t.t.t.t.t.t.t.t.( R J t.t.t.t.t.t.t.t.t.t.t.t.t.t.t.t.t.t.t.t.t.t.t.t.t.:.L P 9.",
"t.t.t.t.w.e.t.q.t.t.t.t.t.t.t.t.t.q.t.( 9.0.t.t.t.t.q.t.q.t.t.t.r.r.t.t.t.t.t.t.t.t.t.t.t.t.w.;.>.t.",
"r.t.e.6.,.w.t.t.t.t.t.t.t.t.t.t.t.t.t.t.t.t.t.t.t.t.t.t.t.t.r.w.<.7.e.t.t.t.t.t.t.t.t.t.t.t.t.e.t.t.",
"t.t.7.#.#.r.r.t.t.t.t.t.t.t.t.t.t.t.t.t.t.t.t.t.t.t.t.t.t.t.w.#.1.w.t.t.t.t.t.t.t.q.t.t.t.t.t.t.t.t.",
"t.t.w.1.7.t.t.t.t.t.t.t.t.t.t.t.t.t.t.t.t.t.t.t.t.t.t.t.t.t.w.<.e.t.t.t.t.t.t.t.t.t.t.t.t.t.t.t.t.t.",
"t.t.t.t.t.t.t.t.t.t.t.t.t.t.t.t.t.t.t.t.t.t.t.t.q.t.q.t.t.t.t.r.t.t.t.t.t.t.t.t.t.t.t.t.t.t.t.t.t.t.",
"t.t.t.t.q.t.t.t.t.t.t.t.t.t.t.t.t.t.t.t.t.7.3.r.t.t.t.t.t.t.t.t.t.t.t.t.t.t.t.t.t.t.t.t.t.t.t.t.t.r.",
"t.t.t.t.t.t.t.t.t.t.t.t.t.t.t.t.t.t.t.t.t.1.6.r.6.7.r.r.t.t.t.t.t.t.t.t.t.t.t.t.t.t.t.t.t.t.t.t.w.4.",
"t.w.t.t.t.t.t.t.t.t.t.t.t.t.t.t.t.t.t.t.t.8.| c x x H &.r.w.t.t.t.t.t.t.t.t.t.t.t.t.t.t.t.t.t.t.q.t.",
"t.r.R t.e.t.t.t.t.t.t.t.t.t.t.t.t.t.r.6.| x x x x x x x c 7.8.r.t.t.t.t.t.t.t.t.t.t.t.t.t.t.t.t.t.t.",
"r.K Y R t.t.t.t.t.t.t.t.t.t.t.t.r.r.6.c x l x l l l l x x c } 8.r.t.t.t.t.t.t.t.t.t.t.t.t.t.t.t.q.t.",
"r.;.P 9.t.t.t.t.t.t.t.t.t.t.r.8.%.x l l j j i h i i j i l l p c F 8.r.t.t.t.t.t.t.t.t.t.t.t.t.t.q.q.",
"t.q.t.t.t.t.t.t.t.t.t.t.r.$.F l l j j h u y w q t w q y y i i l p x x 6.r.t.t.t.t.t.t.t.t.t.t.t.t.t.",
"t.t.t.t.t.t.t.q.t.t.t.8.6.x x l j j h w q q q q q 0 q q a u u i p l x x  .8.t.t.t.t.t.t.t.t.t.t.t.t.",
"t.t.q.t.q.t.t.t.t.8.8.v x l l h w w q q 0 9 9 8 9 9 8 9 0 q q u h j l x x x $.r.r.t.t.t.t.t.t.t.t.t.",
"t.-.t.0.e.t.t.t.t.8.6.r.F j h r q 0 0 8 9 8 8 < < 8 8 8 9 9 9 q q h u l x } r.8.r.t.q.t.5.t.t.t.t.t.",
"%.#.t.t.t.q.t.0.t.8.c  .7.u h r 0 9 9 8 8 3 < < < < < < 8 8 9 0 q q u j F 8.6.H w.t.t.t.` 0.t.t.t.t.",
" .7 w.t.e.t.t.t.t.r.x x z r.6.q 9 8 8 < , ; - = - - ; ; , < 8 9 0 q S r.r.F x v q.t.t.t._ 7.7.t.t.t.",
": 8.t.0.t.t.t.e.t.8.l l u q b 8.X.< < ; - = = = * % = = - < < 9 V r.r.n h l x G 0.t.t.w.3.4.<.t.t.t.",
"t.t.q.t.t.t.t.t.t.r.l j q q 0 o.8.s , = = % % $ # $ % % = ; < o.8.7.] q u j x } t.t.t.q.t.7.1.t.t.t.",
"t.t.0.t.t.q.t.t.t.r.l u q 0 9 8 < 3.r., % @ @ + + @ $ $ % 3.8.6.g 8 9 q q j x  .r.t.t.t.t.t.e.t.t.t.",
"t.e.t.q.t.t.t.q.t.r.j h q 9 8 < < - = 8.r.% X O X O + 4 r.<.d , < 8 9 0 w j l $.t.t.q.t.t.r.t.t.t.t.",
"t.t.t.t.t.t.t.t.t.8.j u q 9 8 < , = = 5 1.` X   X X ) 8.8.- & , , 8 8 r q h l &.w.t.t.t.t.t.t.t.t.q.",
"t.t.t.t.t.t.t.t.t.w.z a q 8 8 , ; = = @ + B 7.d ! r.7.Q + % % - , 8 8 0 0 h p 7.e.q.t.t.q.t.t.t.t.t.",
"t.t.t.t.t.t.t.t.t.t.n u 0 9 8 < ; = = + + X 3.r.r.r.2 X + $ & - ; < 8 0 q u l 7.t.t.t.t.t.t.t.t.t.t.",
"t.t.t.t.t.t.t.t.t.t.D y q 8 1 < ; = = @ + X     ` . X X @ % % - , 8 8 9 r t c r.t.t.t.t.t.t.t.t.t.t.",
"t.t.t.t.t.t.t.t.q.t...u q 9 8 , , = = # + O O X ` X O O @ % = - , 8 8 0 q h M r.t.t.t.t.t.t.r.w.t.t.",
"t.t.t.t.t.t.t.t.t.t.%.u q 0 8 < < - = $ # O O O o.X o + $ % = ; , 8 8 q q i F 8.t.t.t.t.t.t.5.R *.t.",
"t.t.t.t.t.q.t.t.t.t.7.h w 0 9 8 < - - % & # + + o.+ # # % = - , < 9 9 q t j } 8.t.t.t.t.t.t.:.J L 9.",
"t.t.t.e.e.t.t.t.t.t.r.F y 0 0 8 < < ; - = = $ $ o.# $ = = ; , 1 8 9 0 r h j  .w.t.t.t.t.t.t.r.+.9.t.",
"t.t.r.4.2.r.t.t.t.t.r.8.h q 0 9 1 < < - - = % = o.= = = - , < 8 8 9 0 w h l 8.r.t.t.t.t.t.t.t.t.q.t.",
"t.t.7.,.,.w.t.t.t.t.t.t.8.m r 0 9 1 8 , < - - - ,.= - ; , < 8 8 9 q q k | 8.t.t.t.t.t.t.t.t.t.t.t.t.",
"t.e.9.1.w.e.t.t.t.t.t.t.t.r.r.b q 9 9 1 1 < < , ,.< , < 1 8 8 0 q a O.8.t.t.t.t.t.t.t.t.t.t.t.t.t.q.",
"t.t.t.t.t.t.t.t.t.t.t.t.t.t.t.8.] 9 9 e 8 1 1 1 #.< 1 8 8 9 0 q q 3.8.t.t.t.t.t.t.t.t.t.t.t.t.t.t.t.",
"t.t.t.0.t.t.t.t.t.t.t.t.t.t.t.t.e.8.| e 0 9 9 9 %.9 9 9 9 q r 7.r.t.t.t.t.t.t.t.t.t.t.t.t.t.t.t.t.q.",
"t.t.t.t.t.t.t.t.t.t.t.t.t.t.t.t.t.t.w.6.' q 0 e %.0 q q q 7.r.t.t.t.t.t.t.t.t.t.t.t.t.t.t.t.t.t.w.2.",
"t.t.q.t.t.t.t.t.t.t.t.t.t.t.t.t.t.q.t.r.r.b r r 3.q q y %.r.0.t.t.t.t.t.t.t.t.t.t.t.t.t.t.t.t.t.t.t.",
"t.9.;.e.t.t.t.t.t.t.t.t.t.t.t.t.t.t.t.t.t.r.O.j &.j 7.8.t.9.=.t.t.t.t.t.t.t.t.t.t.t.t.t.t.t.t.t.t.t.",
"t.U U +.t.t.t.t.t.t.t.t.t.t.t.t.t.t.t.t.t.t.q.8.8.7.t.t.r.I K W t.t.t.t.t.t.t.t.t.t.0.t.t.t.t.t.t.t.",
"w.+./ 1.t.q.t.t.t.t.t.t.t.t.t.t.t.t.t.t.t.t.t.t.t.t.q.t.t.W T #.t.t.t.t.t.t.t.t.t.t.t.t.t.t.t.t.t.t.",
"t.t.5.t.t.t.t.t.t.t.t.t.t.t.t.t.t.t.t.t.t.t.t.t.t.t.q.t.t.q.0.t.t.t.t.t.t.t.t.t.t.t.t.t.t.t.t.t.t.t.",
"q.q.t.t.t.q.t.0.t.t.t.t.t.t.t.t.t.t.q.t.t.t.t.t.t.t.t.t.t.t.t.t.t.t.t.t.t.t.t.t.t.t.t.t.t.t.t.t.t.t.",
"t.t.t.t.t.e.t.q.t.t.t.t.t.t.t.t.t.t.t.t.t.t.t.t.t.1.<.t.t.e.q.q.t.t.t.t.t.t.t.t.t.e.t.t.q.t.t.t.t.t.",
"r.w.t.t.t.t.t.t.t.t.t.t.t.t.t.t.7.t.t.t.t.t.t.t.w.3.o.w.t.7.t.t.t.t.t.t.t.t.t.t.t.t.t.t.w.t.t.t.t.t.",
"4._ t.q.t.t.t.t.t.t.t.t.t.t.t.q.2.w.t.t.t.t.t.t.t.r._ ^ %._ t.q.t.t.t.t.t.t.t.t.t.q.r.t.,.e.q.t.t.t.",
" .Z t.q.t.q.t.t.t.t.t.t.t.t.t.e.@.7.r.t.t.t.t.t.t.w.~ A { Z t.t.t.t.t.t.t.t.t.t.q.t.t.r.+.w.w.t.t.t.",
"> ;.t.t.t.0.t.t.t.t.t.t.t.t.t.t.,.2.4.t.t.t.t.t.t.t.:.6 6 <.t.t.t.t.t.t.t.t.t.t.0.t.e.e.,.7.,.t.t.t.",
"7.t.t.t.t.t.t.t.t.t.t.t.t.t.t.t.w.4.7.t.q.t.t.t.t.t.t.8.w.t.t.t.t.t.t.t.t.t.t.t.t.t.t.t.4.w.4.t.t.t."
};
