/* XPM */
static char *down11639762448[] = {
/* columns rows colors chars-per-pixel */
"50 50 226 2 ",
"   c #1B0005",
".  c #0E0317",
"X  c #220201",
"o  c #290202",
"O  c #2A0904",
"+  c #330100",
"@  c #320902",
"#  c #3C0C01",
"$  c #3C0000",
"%  c #251609",
"&  c #3D1701",
"*  c #371D1B",
"=  c #281513",
"-  c #242014",
";  c #150020",
":  c #0A003A",
">  c #0E002D",
",  c #370324",
"<  c #360630",
"1  c #2A0F2E",
"2  c #382B34",
"3  c #470A04",
"4  c #590A05",
"5  c #491502",
"6  c #561618",
"7  c #431D10",
"8  c #750517",
"9  c #6E1309",
"0  c #47291E",
"q  c #7B2703",
"w  c #72321A",
"e  c #470F33",
"r  c #57362B",
"t  c #522C32",
"y  c #762A26",
"u  c #6B2132",
"i  c #793737",
"p  c #753720",
"a  c #554434",
"s  c #6B4E39",
"d  c #67543C",
"f  c #69432E",
"g  c #150649",
"h  c #070058",
"j  c #140154",
"k  c #28064C",
"l  c #36184B",
"z  c #2C0F54",
"x  c #342051",
"c  c #080365",
"v  c #170666",
"b  c #050077",
"n  c #1D0E78",
"m  c #61164B",
"M  c #522D4A",
"N  c #733654",
"B  c #761078",
"V  c #70554C",
"C  c #8B0A16",
"Z  c #9C181C",
"A  c #930B0D",
"S  c #AC0908",
"D  c #A8171A",
"F  c #842614",
"G  c #972F0C",
"H  c #B32016",
"J  c #8B1B2A",
"K  c #AF1827",
"L  c #8D2629",
"P  c #8E2824",
"I  c #B52728",
"U  c #B92433",
"Y  c #A6302F",
"T  c #D50D11",
"R  c #C4261B",
"E  c #C1182D",
"W  c #C8262B",
"Q  c #D3242C",
"!  c #8D4433",
"~  c #B15739",
"^  c #AA763D",
"/  c #8C1D56",
"(  c #8F3C5A",
")  c #AC3344",
"_  c #903C70",
"`  c #DE3643",
"'  c #8A5546",
"]  c #844457",
"[  c #8A5955",
"{  c #B45C50",
"}  c #AB7052",
"|  c #906E6A",
" . c #B47B6F",
".. c #C65D4A",
"X. c #ED4554",
"o. c #C86C4E",
"O. c #C65161",
"+. c #D07071",
"@. c #C86369",
"#. c #7E8468",
"$. c #999278",
"%. c #9E8664",
"&. c #A78B73",
"*. c #BC837A",
"=. c #B6976F",
"-. c #D58968",
";. c #CF8D7F",
":. c #C8976F",
">. c #EB856C",
",. c #070088",
"<. c #101C80",
"1. c #0F0598",
"2. c #081295",
"3. c #230692",
"4. c #0000A4",
"5. c #2D18BF",
"6. c #7332B1",
"7. c #3742B6",
"8. c #544181",
"9. c #4246A9",
"0. c #7B78AF",
"q. c #0D1CCF",
"w. c #1B36CB",
"e. c #2E2FC7",
"r. c #2730ED",
"t. c #553FEC",
"y. c #3043D0",
"u. c #3745C0",
"i. c #394AF1",
"p. c #5B40C5",
"a. c #9D7F8B",
"s. c #B17482",
"d. c #A974B8",
"f. c #D27D9A",
"g. c #8149D0",
"h. c #817DC7",
"j. c #B273C4",
"k. c #928B8E",
"l. c #BB9589",
"z. c #B0858F",
"x. c #9EAA94",
"c. c #948BB3",
"v. c #CFA18E",
"b. c #F7BC9D",
"n. c #FFBDAE",
"m. c #FFBBB8",
"M. c #D58B8A",
"N. c #D6C49A",
"B. c #F7CA98",
"V. c #D8CDB6",
"C. c #FDCBA7",
"Z. c #FFD0A1",
"A. c #FCC8BB",
"S. c #F1D1AE",
"D. c #FFE3BB",
"F. c #B98BD6",
"G. c #BABDC3",
"H. c #9E8CEF",
"J. c #FAB1CE",
"K. c #BAC8D3",
"L. c #CCCDCC",
"P. c #C3C7C8",
"I. c #C7D5D9",
"U. c #D4D4D4",
"Y. c #DBDBDB",
"T. c #DCD8D7",
"R. c #D1CFCD",
"E. c #FFC4C3",
"W. c #E1DAC8",
"Q. c #FBDCC5",
"!. c #FFCBDB",
"~. c #E8DBD7",
"^. c #FFDCDC",
"/. c #FFD7D3",
"(. c #D9E0DE",
"). c #CCECDF",
"_. c #EBE8DD",
"`. c #FDEBDE",
"'. c #F9E7DA",
"]. c #FFF8D8",
"[. c #D5D4EB",
"{. c #D1C1FF",
"}. c #D6DAF6",
"|. c #C9C1FF",
" X c #EDDEEC",
".X c #DBE2E6",
"XX c #DBEEF4",
"oX c #E4E4E4",
"OX c #E3E4EB",
"+X c #EAE5EB",
"@X c #E5E9EB",
"#X c #EBEBEC",
"$X c #E9E9E4",
"%X c #FFE4E4",
"&X c #FEEAE2",
"*X c #FFE5E9",
"=X c #F3EEED",
"-X c #F6EBE8",
";X c #ECF2EE",
":X c #E5FDEC",
">X c #FFF4E3",
",X c #FFFAE3",
"<X c #F4F3EC",
"1X c #FDF3EC",
"2X c #F4FFEE",
"3X c #FEFBED",
"4X c #ECEEF4",
"5X c #EBECFA",
"6X c #E6E9F5",
"7X c #F1EDF0",
"8X c #FDECF4",
"9X c #FDEEFB",
"0X c #F8E6F8",
"qX c #EEF4F0",
"wX c #ECFDF5",
"eX c #EDF2FA",
"rX c #ECFEFD",
"tX c #E5FDF6",
"yX c #F4F4F4",
"uX c #FEF4F4",
"iX c #F4FBF6",
"pX c #FEFCF5",
"aX c #F4F4FD",
"sX c #FEF5FD",
"dX c #F5FDFD",
"fX c #FEFEFE",
/* pixels */
"fXfXfXfXfXfXfXfXfXfXfXfXfXfXfXfXfXfXuXiXfXfXfXdXiXiXfXfXpXfXpXpXfXfXfXfXfXfXfXfXfXfXfXfXfXfXfXyXdXfX",
"fXfXfXfXfXfXfXfXfXfXfXfXfXfXfXfXfXuX$XY..XyXfXdXfXfXfXfXfXpXpXfXfXfXfXfXfXfXfXfXfXfXfXfXfXfXyXU.oXiX",
"fXfXfXfXfXfXfXfXfXfXfXfXfXfXfXfXwXdX@XL.U.9XfXfXfXfXfXdXdXdXfXfXfXfXfXfXfXfXfXfXfXfXfXfXfXfXoXL.U.oX",
"fXfXfXyXyXfXfXfXfXfXfXfXfXfXfXfXwXrXyX+X+XsXfXsXfXfXdXdXdXdXfXfXyXfXfXfXfXfXfXfXfXfXfXfXfXfXyXoXyXfX",
"fXfXyX#X#XyXfXfXfXfXfXfXfXfXfXfXfXdXsXsXsXfXsXfXfXsXfXdXdXfXsX9X7XyXsXfXfXfXfXfXfXfXfXfXfXfXfXfXfXfX",
"fXfXyX#X#XyXfXfXfXfXfXfXfXfXfXfXfXfXsXsXsX9XsXfXfXfXfXfXfXdX0X+X=X7XiXfXfXfXfXfXyXfXfXfXfXfXfXfXfXfX",
"fXfXfX#XyXfXfXfXfXfXfXfXfXfXfXfXfXsXdXdXfXsXsXfXdXdXdXfXsXsXaX4XyXfXfXfXfXfXfXfXfXfXfXfXfXfXfXfXfXfX",
"fXfXfXsXiXfXfXfXfXfXfXfXfXfXfXfX9XfXdXrXrXfXfXdXdXrXdXsXfXfXfXrXdXfXfXfXfXfXfXfXfXfXyXfXfXfXfXfXdXfX",
"fXfXfXfXiXfXfXfXfXfXfXfXfXfXfXfXdXdXrXrXrX).:X;XfXuXsXsXfX:XtXrXfXfXfXfXfXfXfXfXfXfXfXfXfXfXfXfXfXfX",
"fXfXfXfXfXfXfXfXfXfXfXfXfXfXfXfXrXXXtXdXtXwXiX^.%X8X^.uX1XdXwXtXfXfXfXfXfXfXfXfXfXfXfXfXfXfXfXfX#X;X",
"fXfXyXfXfXfXfXfXfXfXfXfXfXfXfXfXrXrX=XfXpX^.^.*X) C O.*X`.`.'.pXfXfXfXfXfXfXfXfXfXfXfXfXfXfXfXfXfXfX",
"fX#XoXyXfXfXfXfXfXfXfXfXfXfXfXfXdXfXsX*X^.4 J Z U U Z J y &XA.1XfXfXfXfXfXfXfXfXfXfXfXfXfXfXfXfXfXdX",
"=XU.L.(.fXfXfXfXfXfXfXfXfXfXfXfXfXsX&X%XJ A E X.A.A.A.I W H Y E.uXfXfXfXfXfXfXfXfXfXfXfXfXfXfXfXdXpX",
"dXoXY.oXfXfXfXfXfXfXfXfXfXfXfXfXuXuXuX3 8 K ` m...~ ~ A.S Q R C uXfXfXfXfXfXfXfXfXfXfXfXfXfXfXfXfXfX",
"fXfXfXsXfXfXfXyXfXfXfXfXfXfXfXfXfXW.8Xy 9 Y n.n.} B.} Z...W T Q 8XfXfXfXfXfXfXfXfXfXfXfXfXfXfXfXfXfX",
"yXfXfXfXfXfXfXyXfXfXfXfXfXfXfXfXiXfX^.4 P 9 B.C.C.D.B.Z.>.H T S 1XfXfXfXfXfXfXfXfXfXfXfXfXfXfXfXfXfX",
"fXsXfXfXfXfXfXfXfXfXfXfXfXfXfXpXfXpX`.+ 4 F A { @.+.-.~ Z D A G `.pXpXiXfXpXfXfXiXfXfXfXfXfXfXdXfXfX",
"iXiXfXfXiXfXfXfXfXfXfXfXfXfXfXfX_.~.$.s 3 4 9 q J 8 L F C F G o.&._.fXpXfXpXiXfXfXfXfXsXaXdXfXfXfXfX",
"oX#XyXdXsXyXyXfXfXfXfXfXfXfXfXfX$X3XN.%.# | l.Q.!.f.!.!.-.-.q Z.W.3XfX$X<XfXfXfXfXfXfXeX4XeXfXfXfXfX",
"P.T.=XfXfXfXfXfXfXfXfXfXfXfXfXfX;XW.=.Q.o r 3Xr V J.M V S.:.p Z.| ~.pXpXpXiXfXpXfXfXfXeX@X6XeXfXfXfX",
"R.(.yXfXfXfXfXfXfXfXfXfXfXfXfXfX~.1X' # i *.`.V + s.e M 1Xb.}  .3XfX<X1XfXfXfX<XfXfXfXaX4X@X5XdXfXfX",
"yXfXfXfXfXfXfXfXfXfXfXfXfXfXfXfX0X9X*X6 y *.' |  .m.a.k.l.v.' >X>XfXfXfXpX<XfXfXfXfXfXfXaXeXeXdXfXfX",
"fXfXfXfXfXfXfXfXfXfXfXfXfXfXfXsXsX0X9X*X5 5 & &.C.].V.~.o r | 3XpXpX=XfXfXfXfX<XfXfXdXfXdXdXyXfXfXfX",
"dXsXyXfXfXfXfXfXfXfXfXfXfXfXfXfXsXsX0XfX& ^ # f =.v.V.V @ l.].3XpXpXfXfXiX<XfXfXfXdXsXfXfXfXfXfXfXfX",
"fXfXfXfXfXfXfXfXfXyX#X#XsXfXfXfXfXfXaXsX# $ ;.3 5 p % V  .o d 3X<XfXuXfXfXuXyXoXfXfXfXfXfXdXfXfXfXfX",
"fXfXfXfXfXfXfXfXfXiX7XyXfXfXfXfXfX}.dX2 w ! 6 y } M.s.t [ v.S.$.1XfXfX=XyXpXfX#XdXfXfXfXfXfXdXdXfXfX",
"fXfXfXfXfXfXfXfXfXfXfXiXfXfXfXdXeXfXfXX u ( m _ / / m N l.Q.S.,Xk._.fXfXfXfXfX#XfXfXfXfXfXdXfXdXfXfX",
"fXfXfXfXfXfXfXfXfXfXfXfXfXfXfXdXiX2X<X| < < d.j.B B 6.F.| 1X,X<X-XfXfXfXfX;XfXfXfXfXfXdXdXfXfXfXfXfX",
"fXfXfXfXfXfXfXfXfXfXfXfXfXfXfXdX:X2X#.fXx g {.|.p.6.p.|.0.[.0XsX~.4X+XsXfXfXfXyXfXfXfXfXpXdXfXqXfXfX",
"fXfXfXfXfXfXfXfXfXfXfXfXfXfXfXdXpX2Xx.yX: c c 7.e.t.e.7.7.0.}.sX+XfXfXsX7XfXfXfXfXfXfXfXfXdX$XU.oXyX",
"fXfXfXfXfXfXfXfXfXfXfXfXfXfXfXpX%XfXY.[.N c <.2.i.r.i.y.1.3.H.c.c.$XfXfXfXsXfXfXfXfXdXfXfXfX;XR.Y.#X",
"fXfXfXfXfXfXfXfXfXfXfXfXfXfXfXfXsXyXk.fX> g h ,.4.q.w.e.5.1.v j 0XfXsXdXfXfXfXfXfXfXpXiXfXdXiXY.#XfX",
"fXfXfX#X#X#XfXfXfXfXfXfXfXfXfXfXdXdXfXk.1 ; k h b 1.,.2.b b n g 1 iXiXfXfXfX#XfXfXfXfXfXfXfXfXfXfXfX",
"fXfXyX#X#XyXfXfXfXfXfXfXfXfXfXfXwXdXpX* O e e l j v <.c c h : x . iXfXfXyXfXfXfXfXfXfXfXfXfXfXfXfXfX",
"fXfXyX#XyXfXfXfXfXfXfXfXfXfXfXfXpXW.3X@ + i ] , 1 k z z k l 1 1 2 #XfXiX+XfXfXfXfXfXfXfXfXfXfXfXfXfX",
"fXfXyXfXfXfXfXfXfXfXfXfXfXfXfXfX_.3X,X# } 6 i ( e < M . M   @ * ~.fXfXfXfXfXfXfXfXfXfXfXfXfXfXfXfXfX",
"fXiXfXfXfXfXfXfXfXfXfXfXfXfXfXfX1XpXQ.5 p 5 4 5 , o 0 =   0 & ,XpXfX<XfXfXfXsXfXfXfXfXfXfXfXfXfXfXfX",
"fXfXfXfXfXfXfXfXfXfXfXfXfXfXfXfXfXfXuXo 5 3 5 # 7 O = 3X3X,X].,X-XqXyXfXdXfXfXfXfXfXfXfXfXfXfXfX#XoX",
"fXsXyXfXfXfXfXfXfXfXfXfXfXfXfXfX5XaXfXuXO s a d a - <XpXpX$X3X3XfXfXfXfXfXfXfXiXfXfXfXfXfXfXfXfXfXfX",
"fX#X#XyXfXfXfXyXfXfXfXfXfXfXfXfXdXdXfXfXpX% % % - <XdXiXfX;X_.dXfXyXyXyXfXfXiXfXfXfXfXfXfXfXfXfXfXfX",
"fXR.P.oXyXfXfXfXfXfXfXfXfXfXfXfXdXdXdXfXfXpX3X3XdXqXdXdXtXI.K..XfXfXfXfXfXfXfXfXfXfXfXfXfXfXfXfXfXfX",
"fXoXY.7XfXfXfXfXfXfXfXfXfXfXfXfXdXdXfXfXfXfXpXpXfXdXfXdXeXXX}.6XfXfXfXfXfXfXfXfXfXfXfXfXfXfXfXfXfXfX",
"fXyXyXfXfXfXfXfXfXfXfXfXfXfXfXfXfXfXpXfXpXpXpXpXpXfXfXfXdXaXaXsXfXfXfXfXfXfXfXfXfXfXfXfXfXfXfXfXfXfX",
"fXfXfXfXyXfXfXfXfXfXfXfXfXfXfXfXpXpXpXpXpX3XpXpX1XpX8XfXfXfXfXfXfXfXfXfXfXfXfXfXfXfXfXfXfXfXfXfXfXfX",
"fXfXfXfXyXfXfXfXfXfXfXfXfXfXfXfXpXpXpXpXfXpXfXfX1X-X_.sXfXyXfXdXfXfXfXfXfXfXfXfXfXfXfXfXfXfXfXfXfXfX",
"fXyXfXfXfXfXfXfXfXfXfXfXfXfXfXfXuXuXfXfXfXfXsXfXfX8X~.uXfX.XfXdXfXfXfXfXfXfXfXfXfXfXfXfXyXyXfXfXfXfX",
"#X#XyXfXfXfXfXfXfXfXfXfXfXfXfXfX4XyXfXdXdXaXdXfXfXfXU.(._.(.dXrXfXfXfXfXfXfXfXfXfXfXfXyX7XyXfXfXfXfX",
"U.U.#XfXfXfXfXfXfXfXfXfXfXfXfXfX.X5XdXfXdXdXdXfXdXfXL.P.K.I.dXrXfXfXfXfXfXfXfXfXfXfXfXyX#X7XdXfXfXfX",
"P.~.fXfXfXyXfXfXfXfXfXfXfXfXfXdXaX6XeXfXfXdXfXfXfXfXOXG.G.@XfXfXfXfXfXfXfXfXfXfXpXyXfXfX+XyX+XsXfXfX",
"oXyXfXfXfXfXfXfXfXfXfXfXfXfXfXfX0X5X5XfXfXfXdXfXyXfXfX4X4XfXfXyXfXfXfXfXfXfXfXfXfXiXdXfX+XaX6XfXfXfX"
};
