/* XPM */
static char *down21639762447[] = {
/* columns rows colors chars-per-pixel */
"50 50 225 2 ",
"   c #1A0308",
".  c #1C0619",
"X  c #1B1916",
"o  c #0B0E11",
"O  c #2C0C00",
"+  c #250B0B",
"@  c #290000",
"#  c #380B08",
"$  c #291600",
"%  c #331C03",
"&  c #290A18",
"*  c #271818",
"=  c #381317",
"-  c #3D2A00",
";  c #150026",
":  c #070038",
">  c #160137",
",  c #0A002D",
"<  c #22002E",
"1  c #3A1427",
"2  c #371C3B",
"3  c #350533",
"4  c #0F2125",
"5  c #450202",
"6  c #5A0700",
"7  c #491617",
"8  c #5A1113",
"9  c #670007",
"0  c #730405",
"q  c #6F1200",
"w  c #721F0F",
"e  c #77141B",
"r  c #57351B",
"t  c #4D271C",
"y  c #6F2013",
"u  c #653305",
"i  c #48142B",
"p  c #601B3A",
"a  c #553935",
"s  c #672F32",
"d  c #694239",
"f  c #01044A",
"g  c #000059",
"h  c #270655",
"j  c #390959",
"k  c #281549",
"l  c #3B2D4F",
"z  c #080766",
"x  c #190A63",
"c  c #02007D",
"v  c #12127C",
"b  c #3F2E65",
"n  c #301065",
"m  c #441B44",
"M  c #6D3251",
"N  c #53366D",
"B  c #77356A",
"V  c #594843",
"C  c #7D4F4F",
"Z  c #6C4C4E",
"A  c #7E6B5C",
"S  c #584D77",
"D  c #724D68",
"F  c #8A0400",
"G  c #94000A",
"H  c #891703",
"J  c #910C15",
"K  c #89161A",
"L  c #8E0413",
"P  c #B20A10",
"I  c #932100",
"U  c #972517",
"Y  c #8D2A0B",
"T  c #A8251D",
"R  c #981926",
"E  c #9D0939",
"W  c #A81A2B",
"Q  c #BB1B2C",
"!  c #BE1C31",
"~  c #99262E",
"^  c #94353E",
"/  c #942C32",
"(  c #A3322A",
")  c #B42731",
"_  c #C4201E",
"`  c #CB1623",
"'  c #CE292A",
"]  c #EA2A3A",
"[  c #9D4C1D",
"{  c #804229",
"}  c #9D6D3F",
"|  c #CF5C30",
" . c #D74039",
".. c #8B3955",
"X. c #9E3F47",
"o. c #85266A",
"O. c #E93D58",
"+. c #8C504F",
"@. c #834248",
"#. c #B25540",
"$. c #997556",
"%. c #977254",
"&. c #B76547",
"*. c #AD794F",
"=. c #844D6D",
"-. c #8D796C",
";. c #AB7668",
":. c #AE7B76",
">. c #DB5259",
",. c #C37342",
"<. c #F07452",
"1. c #D86666",
"2. c #BB9459",
"3. c #BE857B",
"4. c #B0956D",
"5. c #EA8050",
"6. c #C6897C",
"7. c #CF926F",
"8. c #050C91",
"9. c #24359D",
"0. c #0000A1",
"q. c #0408B9",
"w. c #2336B6",
"e. c #573794",
"r. c #4931B2",
"t. c #3B40A8",
"y. c #5356B5",
"u. c #1302C4",
"i. c #2D1BCE",
"p. c #3C27C0",
"a. c #3D2DEC",
"s. c #4F34DE",
"d. c #6352D6",
"f. c #987F9D",
"g. c #9C7BA8",
"h. c #A460AB",
"j. c #7A8287",
"k. c #7F9E8F",
"l. c #7D89C3",
"z. c #998999",
"x. c #859796",
"c. c #A28187",
"v. c #B78689",
"b. c #B2908F",
"n. c #A7A8A6",
"m. c #C89889",
"M. c #C08E99",
"N. c #E69C8F",
"B. c #F8BA9F",
"V. c #F9B18F",
"C. c #C599AA",
"Z. c #FDBBB4",
"A. c #FFB9A4",
"S. c #F9D09E",
"D. c #FDC5A6",
"F. c #FBD7A4",
"G. c #FCC4B9",
"H. c #FCCAB5",
"J. c #EECEAD",
"K. c #FFEABF",
"L. c #F6F3BC",
"P. c #898FDD",
"I. c #AC92D2",
"U. c #94A5C3",
"Y. c #B6BFC9",
"T. c #CCADFF",
"R. c #B2CDD9",
"E. c #BDCEE0",
"W. c gray80",
"Q. c #C4C5C6",
"!. c #DACBD3",
"~. c #C7D5DA",
"^. c #D3D4D3",
"/. c #DBDBDC",
"(. c #D4DCDE",
"). c #DCC3C9",
"_. c #FCC8C6",
"`. c #EBD6C8",
"'. c #E7D9DA",
"]. c #FCD8D7",
"[. c #D7E8DE",
"{. c #FEE6D8",
"}. c #FFF7DA",
"|. c #EDE3D6",
" X c #D6D8EA",
".X c #FFDBE4",
"XX c #F2D8E7",
"oX c #F0D1F1",
"OX c #DDE3E8",
"+X c #DDF3ED",
"@X c #CDEBF4",
"#X c #D8E5F6",
"$X c #DBFBF3",
"%X c #CDE1EA",
"&X c #E4E4E4",
"*X c #EAE5EA",
"=X c #ECEBEC",
"-X c #E6E8E8",
";X c #FFEBE5",
":X c #FEEDEB",
">X c #FBE6E8",
",X c #EEF0EF",
"<X c #E9FDE1",
"1X c #FEF2E5",
"2X c #F3F4EC",
"3X c #FEF4ED",
"4X c #FEFDED",
"5X c #F6FDE7",
"6X c #EAE6F3",
"7X c #EEEDF3",
"8X c #ECE6FD",
"9X c #FDEEF2",
"0X c #F7ECF8",
"qX c #ECF2F1",
"wX c #ECFBF6",
"eX c #ECFFFD",
"rX c #E8F9F8",
"tX c #F4F4F4",
"yX c #FEF4F4",
"uX c #F6FCF4",
"iX c #FEFDF4",
"pX c #F4F4FD",
"aX c #FEF5FE",
"sX c #F4FEFD",
"dX c #FEFEFE",
/* pixels */
"dXdXdXdXdXdXdXdXdXdXdXdXdXdXdXdXdXaXtXtXaXaXsXeXwXuXiXaXdXiXiXiXiXdXdXdXdXdXdXdXdXdXdXdXdXdXdXtXsXdX",
"dXdXdXdXdXdXdXdXdXdXdXdXdXdXdXdXdXdX=X/.XXyXsXeXeXsXdXaXiXdXiXdXdXdXdXdXdXdXdXdXdXdXdXdXdXdXtX^.*XtX",
"dXdXdXdXdXdXdXdXdXdXdXdXdXdXdXdXwXeX=X!.!.aXsXeXsXsXdXaXiXdXsXsXdXdXdXdXdXdXdXdXdXdXdXdXdXdX&XW.^.-X",
"dXdXdXtXtXdXdXdXdXdXdXdXdXdXdXdXeXsXtX&X*XdXdXaXdXdXaXdXaXdXsXeXtXdXdXdXdXdXdXdXdXdXdXdXdXdXtX&X,XdX",
"dXdXtX=X=XtXdXdXdXdXdXdXdXdXdXdXdXaXaXdXsXsXaXaXaXaXsXsXdXaXaXtX7XtXdXdXdXdXdXdXdXdXdXdXdXdXdXdXdXdX",
"dXdXtX=X=XtXdXdXdXdXdXdXdXdXdXdXdXaXaXdXsXeXaXaXaXaXsXeXdXaX0X6X7XtXtXdXdXdXdXdXtXdXdXdXdXdXdXdXdXdX",
"dXdXdX=XtXdXdXdXdXdXdXdXdXdXdXdXdXaXaXaXsXeXsXaXaXdXeXsXdXaXaX7XtXtXdXdXdXdXdXdXdXdXdXdXdXdXdXdXdXdX",
"dXdXdXdXtXdXdXdXdXdXdXdXdXdXdXdXtXdXdXdXsXdXdXsXdXsXsXsXdXdXaXeXdXdXdXdXdXdXdXdXdXdXtXdXdXdXdXdXuXdX",
"dXdXdXdXdXdXdXdXdXdXdXdXdXdXdXsXeX$XeXsXtX2X-XdXdXdXiX7XsXsX$XeXdXdXdXdXdXdXdXdXdXdXdXdXdXdXdXdXdXdX",
"dXdXdXdXdXdXdXdXdXdXdXdXdXdXdXdXeXeXrXdXyX:X1X].{.yXaXiXtX+XeXeXdXdXdXdXdXdXdXdXdXdXdXdXdXdXdXdXqX=X",
"dXdXtXdXdXdXdXdXdXdXdXdXdXdXdXdX[.eXuXiX>X.X_.^ X.^ .X.X3XiXiXuXdXdXdXdXdXdXdXdXdXdXdXdXdXdXdXdXsXdX",
"dX=X&XtXdXdXtXdXdXdXdXdXdXdXdXdXdX2XyX9X9 R ~ R ~ W ) W ].1X`.3XdXdXdXdXdXdXdXdXdXdXdXdXdXdXdXdXdXdX",
"=X^.W.&XdXdXdXdXdXdXdXdXdXdXdXdX-XiX>X0 G Q >._._._.` ` Q ( A.{.dXdXdXdXdXdXdXdXdXdXdXdXdXdXdXdXdXsX",
"dX&X^.&XdXdXdXdXdXdXdXdXdXdXdXdX1X3X9 W Q >.Z.&.#.( Z.] ` ) w {.iXdXdXdXdXdXdXdXdXdXdXdXdXdXdXdXdXdX",
"dXdXdXdXdXdXdXtXdXdXdXdXdXdXdXdXiX:XK L J H.D.%.F.*.H. .` P #.{.iXdXdXdXdXdXdXdXdXdXdXdXdXdXdXdXdXdX",
"tXdXdXdXdXdXdXtXdXdXdXdXdXdXdXdXyX9X5 / ~ V.K.F.S.F.D.<.' ' q }.iXdXdXdXdXdXdXdXdXdXdXdXdXdXdXdXdXdX",
"dXaXdXdXdXdXdXdXdXdXdXdXdXdXdXdXtXaX+ 7 0 T &.,.5.<.| F ' F ^ ;XiXdXdXdXdXdXdXdXdXdXdXdXdXdXdXuXdXdX",
"sXuXdXdXtXdXdXdXdXdXdXdXdXdXdXdX;X-.V O e K y 6 I I Y Y F F N.b.iXdXdXdXdXdXdXdXdXaXdXdXtXdXdXdXdXdX",
"&X=XtXdXdXtXtXdXdXdXdXdXdXdXdX4XK.F.;.O ;.:.XXyXv.H.].3.2.[ 7.F.iXdXdXdXdXdXdXdXdXdXdX,X=XtXdXdXdXdX",
"W.^.=XdXdXdXdXdXdXdXdXdXdXdXdX4XF.2.H.8 r yXS b ).V D {.7.u F.2.4XdXdXdXdXdXdXdXdXdXdX,X&X=XtXdXdXdX",
"W./.tXdXdXdXdXdXdXdXdXdXdXdXdX4XL.%.6 / ;..XS . :.  M aXB.%.4.}.4XdXdXdXdXdXdXdXdXdXdXtX=X=XqXdXdXdX",
"tXiXdXdXdXdXdXdXdXdXdXdXdXdXdXiX}.J.9 X.6.$.=.C.G.3.v.M.m.%.}.}.iXdXdXdXdXdXdXdXdXdXdXdXtX2X,XaXdXdX",
"dXdXdXdXdXdXdXdXdXdXdXdXdXdXdXsX$XdX.X5 O $ 6.D.H.D.J.% d -.4X5XdXdXdXdXdXdXdXdXdXtXdXdXdXtXdXdXdXdX",
"dXdXtXdXdXdXdXdXdXdXdXdXdXdXdXdXeXeXaX# -.$ u 7.B.D.r % 6.].iXiXdXdXdXdXdXdXdXdXdXdXdXdXdXdXdXdXdXdX",
"dXdXdXdXdXdXdXdXdXuX=X=XtXdXdXsXsXsX9X# O 4.- O d 5 r %.G J }.1X3XdXsXdXdXtX=X=XdXdXdXdXdXtXdXdXdXdX",
"dXdXdXdXdXdXdXdXaXsXtXtXdXdXdXdX7XiXf.].b.r V A 6.;.M 9 O.P q }.iXdXtXdXdXtXdX&XdXdXdXdXdXdXdXdXdXdX",
"dXdXdXdXdXdXdXdXdXdXtXdXdXdXiXaXaXb.9XaXH.;X  N s p D M O.] T {.iXyXdXdXdXtXdX=XdXdXdXdXdXdXdXdXdXdX",
"aXdXdXdXdXdXdXdXdXdXdXdXdXdXaXdXaXXXaXaXiXaXI.N o.B I.h.E G 1.G.>XdXdXdXtXtXdXdXdXdXdXdXdXdXdXdXdXdX",
"dXdXdXdXdXdXdXdXdXdXdXdXdXdXdXdXwXk.#XaX*X XP.y.e.e.T.oXo...aXaXn.dXdXtXdXdXdXdXdXdXdXsXdXdXdXtXdXdX",
"dXdXdXdXdXdXdXdXdXdXdXdXdXdXdXuXwXk. X8Xz.I.9.w.r.d.s.r.j g.OXsXj.tXdXtXdXdXdXdXdXdXdXiXdXdX=X^.&XtX",
"dXdXdXdXdXdXdXdXdXdXdXdXdXdXdXuX<X4Xz.z., x 8.q.a.i.a.i.8.l.#Xx.n.sXdXdXdXdXtXdXdXdXdXdXdXdX=X^./.=X",
"dXdXdXdXdXdXdXdXdXdXdXdXdXdXdXiXuX2X  l : g 8.0.u.u.s.r.t.g U.j.-XdXdXdXdXtXdXdXdXdXdXaXdXdXtX/.=XdX",
"dXdXdX=X-XtXdXaXdXdXdXdXdXdXdXdXeXo o k : f v z 8.c r.e.n f aXpX6XtXiXdXdXdXdXdXdXdXdXdXdXdXdXdXdXdX",
"dXdXtX=X=XtXuXiXdXdXdXdXdXdXdXdX+X4 l , , h : z f x j m 3 i oX8X7XtXdXdXdXdXdXdXdXdXdXdXdXdXdXdXdXdX",
"dXdXtX=XtXdXdXdXdXdXdXdXdXdXdXdXiXo & 1 m < > N k < 3 o.B =.Z '.yXaXdXdXdXdXdXdXdXdXdXdXdXdXdXdXdXdX",
"dXdXdXtXdXdXdXdXdXdXdXdXdXdXdXdX4XuX= = & 1 2 2 ; k M p @.p @.yXuXdXdXdXdXdXdXdXdXdXdXdXdXdXdXdXdXdX",
"dXtXdXdXdXdXdXdXdXdXdXdXdXdXdXdX1X`.iX# O 1 & & & 1 Z M @.+.r :XiXdXdXdXdXdXdXdXdXdXdXdXdXdXdXdXdXdX",
"dXdXdXdXdXdXdXdXdXdXdXdXdXdXdXdXiXiX3XiXyX].  + = + t s @ # t 1XdXdXuXdXdXdXdXdXdXdXdXdXdXdXdXdX=X&X",
"dXdXtXdXdXdXdXdXdXdXdXdXdXdXdXdXaXtXtXdXtXaX&XdX* a Z V a = ;XyXdXdXdXdXdXdXdXdXdXdXdXdXdXdXdXdXdXdX",
"dX=X=XtXdXdXdXtXdXdXdXdXdXdXdXdXrXsXpXsXdXpXsXdXdXX 4 X * dX/.dXiXaXdXaXdXdXdXdXdXdXdXdXdXdXdXdXdXdX",
"dX^.Q.&XtXdXdXdXdXdXdXdXdXdXdXdXsXsXsXsXsXsXsXsXdXqXsXdXtX~.Q.OXdXdXdXdXdXdXdXdXdXdXdXdXdXdXdXdXdXdX",
"dXOX'.=XdXdXdXdXdXdXdXdXdXdXdXdXdXsXsXsXsXsXuXdXdXuXsXuXwXOX/.=XdXdXdXdXdXdXdXdXdXdXdXdXdXdXdXdXdXdX",
"dXtXtXdXdXdXdXdXdXdXdXdXdXdXdXdXaXdXsXuXsXiXiXiXiXiXiXuXuXuXaXiXdXdXdXdXdXdXdXdXdXdXdXdXdXdXdXdXdXdX",
"dXtXdXdXtXdXdXdXdXdXdXdXdXdXdXdXiXdXdXuXuXuXiXiX3X4X5XuXuXiXiXiXdXdXdXdXdXdXdXdXdXdXdXdXdXdXdXdXdXdX",
"dXdXdXdXtXdXdXdXdXdXdXdXdXdXdXdXyXiXiXdXuXdXiXiX3X;X/.uXdX2XiXiXdXdXdXdXdXdXdXdXdXdXdXdXdXdXdXdXdXdX",
"dXtXdXdXdXdXdXdXdXdXdXdXdXdXdXdX3XaXdXuXsXdXaXaXaXaX(.eXeX-XiXaXdXdXdXdXdXdXdXdXdXdXdXdXtXtXdXdXdXdX",
"=X=XtXdXdXdXdXaXdXdXdXdXdXdXdXdX>XtXsXeXeXsXdXaXaXaX%X@X@X%XdXaXdXdXdXdXdXdXdXdXdXdXdXtX,XtXdXdXdXdX",
"^.^.,XdXdXdXdXdXdXdXdXdXdXdXdXdX*X7XeXeXeXeXdXdXaXaXR.R.R.E.dXpXdXdXdXdXdXdXdXdXdXdXdXtX=XqXdXaXdXdX",
"Q./.dXdXdXtXdXdXdXdXdXdXdXdXdXaXpX8X7XsXsXsXdXdXdXdX6XR.Y.OXdXdXdXdXdXdXdXdXdXdXuXtXiXdX=XtX*XsXdXdX",
"-XtXdXdXdXdXdXdXdXdXdXdXdXdXdXdXpX8XpXsXdXdXdXdXtXdXdX7X7XiXdXtXdXdXdXdXdXdXdXdXdXuXaXdX6XpX6XdXdXdX"
};
