/* XPM */
static char *ground1639762447[] = {
/* columns rows colors chars-per-pixel */
"50 50 61 1 ",
"  c #A4B2BF",
". c #B6BBBF",
"X c #AFB9C5",
"o c #B4BBC1",
"O c #B0B9C8",
"+ c #B5BDD0",
"@ c #B6C2D0",
"# c #BDC6D7",
"$ c #BCC8D4",
"% c #BACAD9",
"& c #B7C6E5",
"* c #C3C7CA",
"= c #C5CACD",
"- c #C4CAD6",
"; c #CACDD0",
": c #C6CFDE",
"> c #CBCFD8",
", c #CED2D4",
"< c #C4D2DE",
"1 c #CCD0DB",
"2 c #D0D3D5",
"3 c #D1D6D9",
"4 c #D5DADD",
"5 c #D9DEDF",
"6 c #CFD6E0",
"7 c #CEDDEE",
"8 c #D5D8E1",
"9 c #DBDFE2",
"0 c #D6DDEC",
"q c #DADFEB",
"w c #C8D7F6",
"e c #CFD8F9",
"r c #D3DEF0",
"t c #DCDFF2",
"y c #D1DFFA",
"u c #DDE2E4",
"i c #DEE4EE",
"p c #D7E2F1",
"a c #DEE6F3",
"s c #DDE3FB",
"d c #DEE9FB",
"f c #E0E1E3",
"g c #E8E7E5",
"h c #E2E5ED",
"j c #E6E9EB",
"k c #E9EBED",
"l c #E2E6F4",
"z c #E5EAF4",
"x c #EAEDF3",
"c c #E2E7FD",
"v c #E5EBFB",
"b c #EAEDFC",
"n c #E7F0F7",
"m c #EDF1F5",
"M c #EDF2FC",
"N c #F3F4F5",
"B c #F7FBF6",
"V c #FCFDF6",
"C c #F2F5FC",
"Z c #F5FAFE",
"A c #FEFEFE",
/* pixels */
"ZAAVAAZAAAAAAAAAAAACAAZAAAAAAAAAAAAAAAAAAAVAAAAZZA",
"AAAAAAAAAAAAAAAAABC,hZAVAAAAAAAAAZAVAVAAAAAAAAx,uA",
"AAAAAAAVAAAAAAAAVAu3*AAVAAAVAAAAAAAAAAAAAAAAAAk;,N",
"VAAACZAVAAAAAAAAAVAuNZAAAVAAAAAAZZAAAAAAAAAAAABjNV",
"AZAnlMAAAAAAAAAAAAAAAAAAAAAAAAZMzCZAAAAAAAAAAAAAAA",
"AAMalZZAAAAAAAAAAAAAAAAAAAAAAAMlxMAAAAAAAVAAAAAAAV",
"AAMxMAAAAAAAAAAAAAAVAAAAAAAAAACxZAAAAAAAAAAAAAAAAA",
"ZAAAAAAAAAAAAAAAAAAAAAAAVAVVAAAZAAAAAAAAAAAAZAAAAA",
"AAAVBAAAAAAAAAAAAAAAAMvCAAAAVAVAAAAAAAAAAAAAAAAAAZ",
"AAAAAAAAAAAAAAAAAAVAAmlMAAABAAAAAAAAAAAAAAAAAAAACb",
"AZAAAAVAAAAAAAAAAAAAAZMZAAAAACAAAAAAAAAAAAAAAAAAZA",
"AM9AZAAAAAAAAAAAAAAAAAAAVAAACA1AAAAAAAAAAAAAAAAAVV",
"Z=24AAAAAAAAAAAAAAAAAAAAAAAAA*u4AAAAAAAAAAAAAAAAAA",
"Zj2NAAAAAAAAAAAAAAAAAAAAAAAAZj,mAAAAAAAAAAAAAAAAVV",
"ABAAAAAAAAAAAAAAAAAAAAAAABAAAANAAAAAAAAAAAAAAAAAAA",
"AAAAAAABAAAAAAAAAAAAAAAAAABAVAAVAAAAAAAAAAAAAAAAAA",
"AVVVAAAAAAAAAAAAAAZAAAAAAlvAAAAVAAAAAAAAAAVAAAAZAA",
"AlABAAZAAAAAAAAAmAAVAAAAAlsnZCAVAAAAAAAAAAAAxAAAAA",
"dsAAABABAAAAAABAlZAAVAAAAMr%dpZAAAAAAAAAAVAAqZAAAA",
"y+CAVAAAAAAAAAAAsMZAAVAAAA6%7@AAAAAAAAAAVAAA0ZMAAA",
" ZZVVAAAAAAAAAAAdvbZVVAAAACXOzAAAAAAAAAAAAACvMzAAA",
"AAZVAAAAAAAAAAAACCmAAAAAVVAAAAVZAAAAAAAAAAAZAMxAAA",
"AAVAAZAVAAAAAAAAAAAAAAAAAVVAAVAAAAAAAAAZAAAAAZAAAA",
"AVABAAAVAAAAAAAAZVAAAAAAAVVAAVVAAAAAAABAAAVVAZAAAA",
"AAAAAAAAACbbZZAAAAAAAAAAAAAAAAAAAAAAAZnzCAAAVZAAAB",
"AAAAAAAAAZbMAVAAAAAAAAAAAAAAAAAAAAAAAZMvAAAAAAAAAA",
"AAAAAAAAAAZZAZVAAAAAVAAAAAAAAAAAAAVAAAZZAAAAAAAAAA",
"AAAAAAAAVAAAAAAAAAAAAZBAAAAAAAAAAAAAAAAAAAAAAAAAAA",
"AAAAAAAAVAAAAVAAAAAZAAAAAAAAAAAAAAAAAAAAAAAAAAAZAA",
"AAAAAAAAAAAAAAAAAVN;jZAVAAAAAAAAAAAAAVAAAAAAAAm,fA",
"AAAAABAAAAAAAAAAVA93=ABAAAAAAAAAAAAAAAAAAAAAAZk;;B",
"AAAAZAAAAAAVAAAVAZA9MAAAAAAAAAAABZAAAAAAAVAAAAZuxA",
"VAZMvZAVAAAAAAAAAAAAAZAAAAVAAZZMvCAAAAVAAAAAAAAAAA",
"AAMllCAAAAAAAAAAAAAVVAABAAVAAZZhbCAAAAAAAAAAAAAAAA",
"AZCxCZAAAAAAAAAAZAABAAVAAAAAAAZhZZAAAVAAAAAAAAAAAA",
"AAAAAAAAAAAAAAAAAZVAAZAAAAAAAAAZAAAAAAAAAAAAAAAAVA",
"AAAVAAAAAAAAAAAAVAAZACiZAAAAAZAAAAAVAAAAAAAAAAAAVZ",
"AAAVAAAAAAAAAAAAAABAAlCvAAABAAAAAAAAAAAAAAAAAAAAbb",
"AABAAAAVAAAAAAAAAZAZAAzAAAAAAABAVAAAAAAAAAAAAAAAAA",
"ANjZAAZAAAAAAAAAAAAVAAAVAAAAANgAAAAAAAAAAAAAAAAAAV",
"A>1uAVAAAAAAAAAAAAAAAAAAVAAAZ4-uAAAAAAAAAAVAAAAAAA",
"Zu8xAAVAAAAAAAAAAAAAAAAAAABAZ5,zAAAAAAAAAAVAAAAAAA",
"VANAAAAAAAAAAAAAAAAAAAAAAAVAAVVAAAAAAAAAAAAAAVAAAA",
"VAAAABABAAAAAAAAAAAVAAAAAAAAAVAAAAAAAAAAAAAAAAAAAA",
"ZZAVAAAAAAAAAAAAAAAAAAAAAvzAAZZVAAAAAAAAABAAAAAVAA",
"ACAAAAAVAAAAAAAAMAAAAAAAZvtCAMAVAAAAAAAAAAAAMAAAAA",
"vpAAAAAZAAAAAAABvCAAAAAAAC07d0ABAAAAAAAAVAAZlAZAAA",
"e#AVVAAAAAAAAAAApMZAAAAAAZ<&w#AAAAAAAAAAVAAZqZCAAA",
".jAAVVAAAAAAAAAAlcbAZAAAAAxookAAAAAAAAAAAAZZlMlAAA",
"MAAVAAAAAAAAAAAACbMAVAAAAAAZZZAAAAAAAAAAVAAAMCvAAA"
};
