/* XPM */
static char *left21639764978[] = {
/* columns rows colors chars-per-pixel */
"50 50 78 1 ",
"  c gray9",
". c #181818",
"X c #630100",
"o c #7B382F",
"O c #7C3931",
"+ c #000062",
"@ c #B40700",
"# c #B50801",
"$ c #FE0700",
"% c #FF0800",
"& c #EF4339",
"* c #F04239",
"= c #AD6B49",
"- c #C68D4A",
"; c #0000DE",
": c #3939E7",
"> c #3C39EA",
", c #9C8C8C",
"< c #A4B2BF",
"1 c #B6BBBF",
"2 c #FFCD84",
"3 c #B3BCC1",
"4 c #B5BDD0",
"5 c #BDC6D7",
"6 c #BBC9D4",
"7 c #B7C6E5",
"8 c #C3C7C8",
"9 c #C5CACD",
"0 c #C5CCD3",
"q c #CBCED2",
"w c #CED2D5",
"e c #C4D5DF",
"r c #CCD0DB",
"t c #D0D3D5",
"y c #D1D6D9",
"u c #D5D9DD",
"i c #D9DEDF",
"p c #E7DFDD",
"a c #E8DEDC",
"s c #DEE0DF",
"d c #E5E0DD",
"f c #E8E0DE",
"g c #CFD6E0",
"h c #CEDBEE",
"j c #D5D8E1",
"k c #DCDFE2",
"l c #D6DDEC",
"z c #D9DEEA",
"x c #C8D7F6",
"c c #CFD8F9",
"v c #DBDEF1",
"b c #D1DFFC",
"n c #DDE2E5",
"m c #D7E3F1",
"M c #DEE6F3",
"N c #DDE3FD",
"B c #DEE9FB",
"V c #E1E2E4",
"C c #E8E7E5",
"Z c #E1E5ED",
"A c #E6E9E9",
"S c #E9EBED",
"D c #EEF0EF",
"F c #E2E6F4",
"G c #E4EAF4",
"H c #EAEDF4",
"J c #E5E7FD",
"K c #E5EAFC",
"L c #EAEEFC",
"P c #EDF1F4",
"I c #EDF2FC",
"U c #F3F3F5",
"Y c #F7FBF6",
"T c #FDFEF6",
"R c #F2F5FC",
"E c #FAF7FE",
"W c #F5FAFD",
"Q c #FEFEFE",
/* pixels */
"EQQQTQEQQQQQQQQQQEQWQQWQQQQQQQQQQQQQQQQQQQQQQQQWQQ",
"QQQTQQQQQQQQQQQQQTIwnEQQQQQQQQQQQQQQTQQQQQQQQQHwsQ",
"QQQQQQQQQQQQQQQQQQsu9QQQQQQTQQQQQWQQQQQQQQQQQQSqwP",
"QQQQREQTQQQQQQQQQTQnUYQQQQTQQQQQRWQQQQQQQQQQQQWADQ",
"WQWIFIQQQQQQQQQQQTQEQQQQQQQQQQWIGREQQQQQQQQQQQQEQQ",
"QQIMMWWQQQQQQQQQQQQQQQQQQQQQQQIFGRQQQQQQQTQQQQQQQQ",
"QQIHIQQQQQQQQQQQQQQQQQQQQQQQQQRGEQQQQQQQQQQQQQQQQQ",
"EQQQQQQQQQQQQQQQQQQQQQQQTQTQQQQWQQQQQQQQQQQQTQQQQQ",
"QQQQTQQQQQQQQQQQQQQQQPFWQQQQQQQQQQQQQQQQQQQQQQQQQW",
"QQQQQQQQQQQQQQQQQQTQQLGIQQETQQQQQQQQQQQQQQQQQQQQRL",
"QWQQQQQQQQQQQQQQQQQQQWREQQQQQWQQQQQQQQQQQQQQQQQQTT",
"WRuQEQQQQQQQQQQQQQQQQ,,pTQQQRQwWQQQQQQQQQQQQQQQQQQ",
"W0tiQQQQQQQQQQQQQQQQ,fQpQQQQQ6iyQQQQQQQQQQQQQQQQQQ",
"WAqUQQQQQQQQQQQQQQQ,QpQf@@QQQAtDQQQQQQQQQQQQQQQQTT",
"QTQQQQQQQQQQQQQQQQQQQfQ=%%@@QQYQQQQQQQQQQQQQQQQQQQ",
"QQQQQQQTQQQQQQQQQQQQ,Q@&%%$$@QQQQQQQQQQQQQQQQQQQQQ",
"QQTQTQQQQQQQQQQQQQQQQV=-%%%%%@QTQQQQQQQQQQQQQQQQQQ",
"QZQYEQQQQQQQQQQQUE@@@X2,%*%%%@@QQQQQQQQQQQQQGQQQQQ",
"NMQQQTQYQQQQQQTEFW@@@@,=%&%%%%@QQQQQQQQQTQQQzWQQQQ",
"c4RQEQQQQQQQQQQQNIW@%%%X%%&%%%@@QQQQQQQQQQQQzRIQQQ",
"3WWQQQQQQQQQQQQQBKGO@%%%#%&&%%@@@QQQQQQQTQQRGLGQQQ",
"WWTTQQEQQQQQQQQQWO=-:d&&##%&%%%%@QQQQQQQQQQEQIHQQQ",
"QQYQQTQQQQQQQQQQQ=22:f=--X##%%%%@QQQQQQQQQQQQQWQQQ",
"QTQWQQQTQQQQQQQQQQ=o.=22X=O=O#@@QQQQQQQQQQTQQWQQQQ",
"QQQQQQQQQWKKWQQQQQQ..O22X2==O..QQQQQQWIMRQQQQQQQQT",
"QQQQQQQQQELIWQQQQQQQ.O-222O=XXQQQQQQQEIGEQQQQQQWQQ",
"QQQQQQQQQQEWQTQQQQTQQXO=-=O..XOQQQQQQQWRQQQQQQQQQQ",
"QQQQQQQQTQQQQQQQQQQQQX.+&&O+.QQQQQQQQQQQQQQQQTQQQQ",
"QQQQQQQQTQQQQQQQQQQW.++X%%@;+XQQQQQQQQQQQQQQQQQRQQ",
"QQQQQQQQQQQQQQQQQQU9O=O#%%%@X=XQQQQQQQQQQQQQQQPyVQ",
"QQQQQTQQQQQQQQQQQXXyO+%%@%*&O=XQQQQQQQQQQQQQQWD9qU",
"QQQTEQQQQQQYQQQToXXO:+@%X*pQfOX.RTQQQQQQQQQQQQWnPQ",
"QQQLKWQQQQQQQQQQOOOO::;+>dQpQdO.FIQQQTQQQQQQQQQQTQ",
"QEIFFRQQQQQQQQQQOOOO:::;:ffQQQf.IWQQQQQQQQQQQQQQQQ",
"QWUHRWQQQQQQQQQQOXOX::::+pQQdQ=XWWQQQQQQQQQQQQQQQT",
"QQQQQQQTQQQQQQQQOXXX:;;;+,fQd,.EQQQQQQQQQQQQQQQQQQ",
"QQQYQQQQQQQQQQQQOXX++++WQQQQEQQQQQQQQQQQQQQQQQQQTQ",
"QQQQQQQQQQQQQQQQ.XXQQMRKQQQTQQQQQQQQQQQQQQQQQQQQIJ",
"QQEQQQQQQQQQQQQQQEQTQQAQQQQQQQUQQQQQQQQQQQQQQQQQQQ",
"QUCWQQQQQQQQQQQQQQEQQQQQQQQQQUCQQQQQQQQQQQQQQQQQQQ",
"QrrnQQQQQQQQQQQQQQQQQQQQTQQQQe0nQQQQQQQQQQYQQQQQQQ",
"WnjHTTQQQQQQQQQQQQQQQQQQQETQQsyZQQQQQQQQQQQQQQQQQQ",
"QQPQQQQQQQQQQQQQQQQEQQQQEQTQQTYQQQQQQQQQQQQQQQQQQQ",
"TTQQQEQYQQQQQQQQQQQTQQQQQQQQQQQQQQQQQQQQQQQQQQQQQQ",
"QQQQQQQTQQQQQQQQQQQQQQQQQIGQQWEQQQQQQQQQQQQQTQQQQQ",
"WRQQEQQQQQQQQQQQWWQQQQQQWFvIQIQTQQQQQQQQQWQQRQQQQQ",
"LlWTQQQQQQQQQQQTBWQQQQQQQWlhBlQYQQQQQQQQQTWQFETQQQ",
"c6QTQTQQQQQQQQQEmLWQQQQQQRg7x6QQQQQQQQQQTQQWzRRQQQ",
"3AQQQTQQQQQQQQQQFJKQQQQQQQS33GQQQQQQQQQQYQEEFIFQQQ",
"IQQQQQQTQQQQQQQQRLIQTQQQQQQRRQQQQQQQQQQQQQQQLRLQQQ"
};
