/* XPM */
static char *left11639764979[] = {
/* columns rows colors chars-per-pixel */
"50 50 80 1 ",
"  c gray9",
". c #181816",
"X c #191718",
"o c #171918",
"O c #181818",
"+ c #630100",
"@ c #7C3931",
"# c #000062",
"$ c #B50701",
"% c #B50801",
"& c #FE0700",
"* c #FF0800",
"= c #EF4337",
"- c #EF4339",
"; c #AD6B49",
": c #B06B4A",
"> c #C68D4A",
", c #0000DE",
"< c #3939E7",
"1 c #3939E9",
"2 c #9C8C8C",
"3 c #A4B2BF",
"4 c #B6BBBF",
"5 c #FFCD84",
"6 c #B3BCC1",
"7 c #B5BDD0",
"8 c #BDC6D7",
"9 c #BBC9D4",
"0 c #B7C6E5",
"q c #C3C7CA",
"w c #C5CACD",
"e c #C5CCD3",
"r c #CBCED2",
"t c #CED2D4",
"y c #C4D5DF",
"u c #CCD0DB",
"i c #D0D3D5",
"p c #D1D6D9",
"a c #D5D9DD",
"s c #D9DEDF",
"d c #E7DFDD",
"f c #E8DEDD",
"g c #DEE0DF",
"h c #CFD6E0",
"j c #CEDBEE",
"k c #D5D8E1",
"l c #DCDFE2",
"z c #D6DDEC",
"x c #D9DEEA",
"c c #C8D7F6",
"v c #CFD8F9",
"b c #DBDEF1",
"n c #D1DFFC",
"m c #DDE2E5",
"M c #DEE2ED",
"N c #D7E3F1",
"B c #DEE6F3",
"V c #DDE4FF",
"C c #DEE9FB",
"Z c #E1E2E4",
"A c #E9E8E6",
"S c #E2E7ED",
"D c #E6E9E9",
"F c #E9EBED",
"G c #EEF0EF",
"H c #E3E6F4",
"J c #E5EAF4",
"K c #EAEDF4",
"L c #E5E7FD",
"P c #E6EAFC",
"I c #EAEEFC",
"U c #EDF2F4",
"Y c #EDF2FC",
"T c #F3F3F4",
"R c #F7FBF6",
"E c #FDFEF6",
"W c #F2F5FC",
"Q c #FAF7FE",
"! c #F5FAFD",
"~ c #FEFEFE",
/* pixels */
"Q~~~E~Q~~~~~~~~~~Q~!~~!~~~~~~~~~~~~~~~~~~~~~~~~!~~",
"~~~E~~~~~~~~~~~~~EYtmQ~~~~~~~~~~~~~~~E~~~~~~~~Ktg~",
"~~~~~~~~~~~~~~~~E~mpq~~~~~~E~~~~~!~~~~~~~~~~~~FetU",
"~~~~WQ~E~~~~~~~~~~~mTR~~~~E~~~~~!!~~~~~~~~~~~~!DG~",
"!~!IHY~~~~~~~~~~~~~~~~~~~~~~~~!YJY!~~~~~~~~~~~~~~~",
"~~YBB!!~~~~~~~~~~~~~~~~~~~~~~~YHIT~~~~~~~E~~~~~~~~",
"~~YKY~~~~~~~~~~~~~~~~~~~~~~~~~WJQ~~~~~~~~~~~~~~~~~",
"Q~~~~~~~~~~~~~~~~~~~~~~~E~E~~~~!~~~~~~~~~~~~E~~~~~",
"~~~~E~~~~~~~~~~~~~~~~YPW~~~~~~~~~~~~~~~~~~~~~~~~~!",
"~~~~~~~~~~~~~~~~~~~~~KHY~~~E~E~~~~~~~~~~~~~~~~~~WI",
"~!~~~~~~~~~~~~~~~~~~~!WQ~~~~~!Q~~~~~~~~~~~~~~~~~EE",
"~Ys~Q~~~~~~~~~~~~~~~~~~~R~~~!!t~~~~~~~~~~~~~~~~~~~",
"!wis~~~~~~~~~~~~~~~~~~~$%%~~~qla~~~~~~~~~~~~~~~~~~",
"!SrT~~~~~~~~~~~~~~~~~~;***$~!DtU~~~~~~~~~~~~~~~~EE",
"~E~~~~~~~~~~~~~~~~~~~$-***&%~~!~~~~~~~~~~~~~~~~~~~",
"~~~~~~~E~~~~~~~~~~~~~;>***&&$E~~~~~~~~~~~~~~~~~~~~",
"~~E~E~~~~~~~~~~~~$$%%2;%*-***%~E~~~~~~~~~~~~!~~~~~",
"~S~RQ~~~~~~~~~~~U~%***+%*****$%~~~~~~~~~~~~~U~~~~~",
"VB~~~E~R~~~~~~EQB!@%***+%*-**$%%~~~~~~~~E~~~x!~~~~",
"v7W~Q~~~~~~~~~~~@;>1d---%%-****%~~~~~~~~~~~~zWY~~~",
"3!~R~~~Q~~~~~~~~;551d;>;>+%****%~~~~~~~~E~~WJIJ~~~",
"!~E~~~~~~~~~~~~~@55;;>55>+%%***%~~~~~~~~~~~Q~YK~~~",
"~~R~~E~~~~~~~~~~~!.o@55;+5;@OO~~~~~~~~~~~~~~~~!~~~",
"~E~!~~~E~~~~~~~~~~~.@>5555;++ER~~~~~~~QE~~E~~!~~~~",
"~~~~~~~~~WII!~~~~~~~+@;;>;.O+@~~~~~~~!YCW~~Q~~~~~E",
"~~~~~~~~~WII!~~~~~fd~2#+%%<#~~~~~~~~~QYJQ~~~~~~~~~",
"~~~~~~~~~~E!~~E~~2~~f~;***1#~~~~~~~~~~!!~~~~~~~~~~",
"~~~~~~~~~~~~~~~~~dd~~~-=-*,#~~~~~~~~~~~~~~~~EE~~~~",
"~~~~~~~~~~~~~~Q~+2~~~d---*,#~~~~~~~~~E~~~~~~~~!!~~",
"~~~~~~~~~~~~~~~o+@>####,1<<<1#+@O~~~~~~~~~~~~~UpZ~",
"~~~~~E~~~~~~~~~.@+@,<##,,<<<1+@@o~~~~~~~~~~~~~FwrT",
"~~~EQ~~~~~E~~~~~O@+@<<##,<<<+@:;.Q~~~~~~~~~~~~!mU~",
"~~!YPQ~~~~~~~~~~~O+@### #,1<+;@@ Y~~E~~~~~~~~~~~E~",
"~~KHHW~~~~~~~~~~~O@++@E~O#,++@@OYW~~~~~~~~~~~~~~~~",
"~QWKWW~~~~~~~~~~Q~  O~E~~~O++@@O!~~~~~~~~~~~~~~~~E",
"~~~~~~~E~~~~~~~~~~Q~~~~!~~~+++@O~~~~~~~~~~~~~~~~~~",
"~~~E~~~~~~~~~~~~~R~E~!MQ~~~~o ~~~~~~~~~~~~~~~~~~E~",
"~~~~~~~~~~~~~~~~~~R~QMWP~~~E~~~~~~E~~~~~~~~~~~~~YL",
"~~Q~~~~E~~~~~~~~~~~~~~S~~~~~~~R~~~~~~~~~~~~~~~~~~~",
"~TD!~~~~~~~~~~~~Q~~~~~~~~~~~~TA~~~~~~~~~~~~~~~~~~~",
"!uum~~~~~~~~~~~~~~~~~~~~E~~~~yem~~~~~~~~~~R~~~~~~~",
"~mkK~E~~~~~~~~~~~~~~~~~~~E~~~mtF~~~~~~~~~~~~~~~~~~",
"~~T~~~~~~~~~~~~~~~~~~~~~Q~E~~ER~~~~~~~~~~~~~~~~~~~",
"EE~~~R~R~~~~~~~~~~E~~~~~~~~Q~~~~~~~~~~~~~~~~~~~~~~",
"!E~~~~~E~~~~~~~~~~~~~~~~~JJ~~!Q~~~~~~~~~~Q~~E~~~~~",
"!!~~Q~~~~~~~~~~~W!~~~~~~!PNY~Y~E~~~~~~~~~~~~T~~~~~",
"Iz~~~~~~~~~~~~~EC!~~~~~~~WzzCz~R~~~~~~~~~E~!M~Q~~~",
"v9~R~E~~~~~~~~~QNY!~~~~~~Wh0c9~~~~~~~~~~E~~!z!W~~~",
"6D~~~E~~~~~~~~~~HLI~~~~~~~F66J~~~~~~~~~~R~QQHYH~~~",
"Y~~~~~~E~~~~~~~~WIY~E~~~~~!!W~~~~~~~~~~~~~~~IWI~~~"
};
