/* XPM */
static char *open_exit1639764979[] = {
/* columns rows colors chars-per-pixel */
"50 50 141 2 ",
"   c #DD6D3C",
".  c #E14F4F",
"X  c #E2514E",
"o  c #E44B52",
"O  c #DE6643",
"+  c #E16644",
"@  c #95873E",
"#  c #96883F",
"$  c #9A8D3F",
"%  c #AC9B3F",
"&  c #B2A33A",
"*  c #BAA73B",
"=  c #E69F05",
"-  c #DEB606",
";  c #E7A101",
":  c #E8A202",
">  c #E8A906",
",  c #E6A20D",
"<  c #E9AC09",
"1  c #E9B20D",
"2  c #E6A211",
"3  c #E8A719",
"4  c #EAB610",
"5  c #EABC14",
"6  c #C3B03A",
"7  c #C8B63A",
"8  c #E7AC2E",
"9  c #E8AD2F",
"0  c #E7AF34",
"q  c #E8AD34",
"w  c #E2AA3B",
"e  c #E9B03E",
"r  c #CECF0F",
"t  c #CFD200",
"y  c #CED10A",
"u  c #EDC51D",
"i  c #EDC81F",
"p  c #D6C437",
"a  c #EDCD22",
"s  c #EDCE28",
"d  c #EED225",
"f  c #EFD72C",
"g  c #EED82B",
"h  c #F1D72C",
"j  c #F0D82D",
"k  c #EFD832",
"l  c #AC9B41",
"z  c #E9B44E",
"x  c #EDBC5C",
"c  c #D7DA4B",
"v  c #DBDD5E",
"b  c #EED942",
"n  c #EFD451",
"m  c #EFDB5E",
"M  c #C8CD67",
"N  c #DFDF6F",
"B  c #CED27E",
"V  c #F0DF6B",
"C  c #EFDD7B",
"Z  c #F2DF71",
"A  c #A4B2BF",
"S  c #B6BBBF",
"D  c #CF9291",
"F  c #E9AEB0",
"G  c #EDB1B3",
"H  c #E9DE85",
"J  c #E6DD8E",
"K  c #E2E58E",
"L  c #EDEDB9",
"P  c #B3BCC1",
"I  c #B5BDD0",
"U  c #BDC6D7",
"Y  c #BCC8D4",
"T  c #B6C5E6",
"R  c #C5CACD",
"E  c #C5CCD3",
"W  c #CBCED2",
"Q  c #CED2D3",
"!  c #C6D4DF",
"~  c #CCD0DB",
"^  c #D0D3D5",
"/  c #D1D6D9",
"(  c #D5DADD",
")  c #D9DEDF",
"_  c #F0C0C0",
"`  c #DEE0DF",
"'  c #E8E2C8",
"]  c #EFEFC9",
"[  c #F7E9CE",
"{  c #F8EACF",
"}  c #F9F1C0",
"|  c #F9F2CD",
" . c #EAE6DD",
".. c #F6EAD0",
"X. c #FAEAD3",
"o. c #F7EBDB",
"O. c #FAEFDE",
"+. c #F1F4D7",
"@. c #F9F3D3",
"#. c #F9F0DF",
"$. c #CFD6E0",
"%. c #CEDBEE",
"&. c #D5D8E1",
"*. c #DEDFE1",
"=. c #D5DDEC",
"-. c #D9DEEA",
";. c #C7D8F6",
":. c #CFD8F9",
">. c #DCDFF2",
",. c #D1DFFC",
"<. c #DCE2E5",
"1. c #D6E4F1",
"2. c #DEE6F3",
"3. c #DDE4FF",
"4. c #DEE9FB",
"5. c #E1E2E4",
"6. c #E2E7ED",
"7. c #E6E9E9",
"8. c #E9EBED",
"9. c #EEF0EF",
"0. c #F6F5E1",
"q. c #FBF3E5",
"w. c #FDF9E0",
"e. c #F1F3E8",
"r. c #F7FAEF",
"t. c #FCFAEB",
"y. c #E3E6F4",
"u. c #E5EAF4",
"i. c #EAEDF4",
"p. c #E5E7FD",
"a. c #E5EBFA",
"s. c #E9EDFC",
"d. c #ECF1F4",
"f. c #ECF2FC",
"g. c #F2F3F3",
"h. c #F7FBF6",
"j. c #FCFCF6",
"k. c #F2F4FC",
"l. c #FAF7FE",
"z. c #F5FAFD",
"x. c #FEFEFE",
/* pixels */
"l.x.x.x.x.j.x.x.x.x.x.x.x.x.x.x.x.l.x.k.x.x.z.x.x.x.x.x.x.x.x.x.x.x.x.x.x.x.x.x.x.x.x.x.x.x.x.z.x.x.",
"x.x.x.j.x.x.x.x.x.x.x.x.x.x.x.x.x.j.k.Q <.l.x.j.x.x.x.x.x.x.x.x.z.x.x.x.j.x.x.x.x.x.x.x.x.x.u.Q ` x.",
"x.x.x.x.x.x.x.x.x.x.x.x.x.x.x.x.x.x.<.( R x.x.x.x.x.x.j.x.x.x.x.x.x.x.x.x.x.x.x.x.x.x.x.x.x.8.E Q d.",
"x.x.x.x.k.l.x.j.x.x.x.x.x.x.x.x.x.j.x.<.g.h.x.x.x.x.x.x.x.x.x.x.k.z.x.x.x.x.x.x.x.x.x.x.x.x.j.7.9.x.",
"z.x.z.f.y.f.x.x.x.x.x.x.x.x.x.x.x.x.x.j.x.x.x.x.x.x.x.x.x.x.z.f.u.k.z.x.x.x.x.x.x.x.x.x.x.x.x.x.x.x.",
"x.x.f.2.y.k.z.x.x.x.x.x.x.x.x.x.x.x.x.x.x.x.x.x.x.x.x.x.x.x.f.6.a.g.x.x.x.x.x.x.x.j.x.x.x.x.x.x.x.x.",
"x.x.f.i.f.x.x.x.x.x.x.x.x.x.x.x.x.x.x.x.x.x.x.x.x.x.x.x.x.x.k.a.l.x.x.x.x.x.x.x.x.x.x.x.x.x.x.x.x.x.",
"l.x.x.x.x.x.x.x.x.x.x.x.x.x.x.x.x.x.x.x.x.x.x.x.j.x.j.x.x.x.x.z.x.x.x.x.x.x.x.x.x.x.x.x.j.x.x.x.x.x.",
"x.x.x.x.j.x.x.x.x.x.x.x.x.x.x.x.x.x.x.x.x.f.a.k.x.x.x.x.j.x.x.x.x.x.x.x.x.x.x.x.x.x.x.x.x.x.x.x.x.z.",
"x.x.x.x.x.x.x.x.x.x.x.x.x.x.x.x.x.x.x.x.x.d.y.k.x.x.j.j.x.x.x.x.x.x.x.x.x.x.x.x.x.x.x.x.x.x.x.x.k.s.",
"x.z.x.x.x.x.x.x.x.x.x.x.x.x.x.x.x.x.x.j.r.z.f.g.t r x.x.x.e.r.x.x.x.x.x.x.x.x.x.x.x.x.x.x.x.x.x.h.x.",
"z.k.( x.l.x.x.x.x.x.x.x.x.x.x.x.x.x.x.K v x.x.N t t L x.z.c M z.x.x.x.x.x.x.x.x.x.x.x.x.x.x.x.x.j.x.",
"z.E ^ ( x.x.x.x.x.x.x.x.x.x.x.x.x.x.x.] t 0.y t . X t r +.t B ( x.x.x.x.x.x.x.x.x.x.x.x.x.x.x.x.x.x.",
"z.7.^ g.x.x.x.x.x.x.x.x.x.x.x.x.x.x.x._ O t t t o o t t t O D d.x.x.x.x.x.x.x.x.x.x.x.x.x.x.x.x.j.j.",
"x.j.x.x.x.x.x.x.x.x.x.x.x.x.x.x.x.x.x.G o t t t     t t t o F x.x.x.x.x.x.x.x.x.x.x.x.x.x.x.x.x.x.x.",
"x.x.x.x.x.x.x.j.x.x.x.x.x.x.x.x.x.x.x.x.J - : ; ; ; ; : - H j.x.x.x.x.x.x.x.x.x.x.x.x.x.x.x.x.x.x.x.",
"x.j.x.j.x.x.x.x.x.x.x.x.x.x.x.x.x.x.j.x 2 ; ; > : : > : ; 2 x t.x.x.x.x.x.x.x.x.x.x.x.x.x.x.x.j.x.x.",
"x.6.x.h.l.x.j.x.x.x.x.x.x.x.x.x. .= ; = > d g f f f f f d > ; ; , q.x.x.x.x.x.x.x.x.x.x.d.x.x.x.x.x.",
"3.2.x.x.x.j.x.j.x.x.x.x.x.x.x.o.w ; ; : i g f f f f f f g i : ; ; e O.x.x.x.x.x.j.x.x.x.-.z.x.x.x.x.",
":.I k.x.l.x.x.x.x.x.x.x.x.x.#.; ; ; ; g f f f f f f g g f g g ; ; ; ; t.x.x.x.x.x.x.x.x.=.k.f.x.x.x.",
"P z.z.x.x.x.x.l.x.x.x.x.x.x.0 ; ; ; 4 f f f f f f f f f f f h 4 ; ; ; n t.x.x.x.j.x.x.k.a.s.u.x.x.x.",
"z.z.j.j.x.x.x.x.x.x.x.x.x.s ; ; ; > d h f f f f f f f f f g g d > ; ; > k x.x.x.x.x.x.j.x.f.i.x.x.x.",
"x.x.j.x.x.j.x.x.x.x.x.x.| 1 ; ; ; 1 h j f g f j f h f f f f f f 4 : ; ; 5 | x.z.x.x.x.x.x.x.z.x.x.x.",
"x.j.x.z.x.x.x.j.x.x.x.x.Z : ; ; ; > d j f g f f f f f h f f g d > ; ; : < Z x.j.x.x.x.j.x.z.x.x.x.x.",
"x.x.x.x.x.x.x.x.x.z.s.s.k ; ; ; ; ; 4 f f f f f f f h f f k f 1 ; ; ; ; ; k f.u.k.x.x.x.x.x.x.x.x.j.",
"x.x.x.x.x.x.x.x.x.l.s.s.g ; ; ; ; ; = f f h f f f f f f f f g ; ; ; ; ; ; h f.a.j.x.x.x.x.x.x.z.x.x.",
"x.x.x.x.x.x.x.x.x.x.l.z.d ; ; ; ; ; ; ; i f f f f f f f h i ; ; ; ; ; ; ; g z.k.x.x.x.x.x.x.x.x.x.x.",
"x.x.x.x.x.x.x.x.j.x.x.x.5 ; ; ; ; ; ; ; ; d h j f f f f d ; ; ; ; ; ; = ; a x.x.x.x.x.x.x.j.x.x.x.x.",
"x.x.x.x.x.x.x.x.j.x.x.x.1 ; ; ; ; ; : : ; ; ; ; : : ; ; ; ; ; ; : ; ; ; ; 5 x.x.x.x.x.x.x.x.z.k.x.x.",
"x.x.x.x.x.x.x.x.j.x.x.x.3 ; ; ; ; = ; = ; ; ; ; ; ; ; ; ; ; ; ; ; ; : ; ; , x.x.x.x.x.x.x.x.d.( 5.x.",
"x.x.x.x.x.j.x.x.x.x.j.x.z : ; = ; ; : = ; ; ; ; ; ; = ; ; ; ; ; ; ; ; ; ; e x.x.x.x.x.x.x.x.9.R W g.",
"x.x.x.l.l.x.x.x.x.x.x.x.j.= ; ; ; ; ; : ; 1 d j h j g i 1 ; ; ; ; ; ; ; ; j.x.x.x.x.x.x.j.x.z.<.d.x.",
"x.x.z.f.p.z.x.j.x.x.x.x.x.= = ; ; ; ; 1 a f g h f f h h f 5 > ; ; ; ; ; ; x.x.x.x.x.x.x.x.x.x.x.j.x.",
"x.x.s.y.y.k.x.x.x.x.x.x.x.q.8 ; ; > i g f 7 l g f f f l 7 f h 4 ; ; ; q O.x.x.x.x.x.x.x.x.x.x.x.x.x.",
"x.l.g.i.k.l.x.x.x.x.x.x.x.x.[ ; ; u f f h & @ h f f f @ & f f f 4 ; ; [ x.x.x.x.x.x.x.x.x.x.x.x.x.x.",
"x.x.x.x.x.x.x.x.x.x.x.x.x.x.x.X.0 f f f f * # h f f f $ * f f g h 0 [ x.x.x.x.x.x.x.x.x.x.x.x.x.x.x.",
"x.x.x.x.x.x.x.x.x.x.x.x.x.x.x.x.q.f f f f p 6 f f h j 6 p f h f h q.x.x.x.x.x.x.x.x.x.x.x.x.x.x.j.j.",
"x.x.x.x.x.x.x.x.x.x.x.x.x.x.x.x.x.b f f g f f g f f f f f f g g V x.x.x.x.x.x.x.x.x.x.x.x.x.x.x.f.p.",
"x.x.j.x.x.x.x.j.x.x.x.x.x.x.x.x.x.x.@.f g h f j f f f f f f k x.x.x.x.x.x.x.x.x.x.x.x.x.x.x.x.x.x.x.",
"x.g.7.k.x.x.j.x.x.x.x.x.x.x.x.x.l.x.x.} m f g g f f j h f C ' x.x.x.x.x.x.x.x.x.x.x.x.x.x.x.x.x.x.x.",
"x.~ ~ <.j.x.x.x.x.x.x.x.x.x.x.x.x.x.x.x.x.x.x.q.w.t.j.j.x.! E <.x.x.x.x.x.x.x.x.x.x.j.x.x.x.x.x.x.x.",
"z.<.&.i.j.x.j.x.x.x.x.x.x.x.x.x.x.x.x.x.x.x.x.x.x.l.j.x.x.` / 6.x.x.x.x.x.x.x.x.x.x.x.x.x.x.x.x.x.x.",
"x.j.d.x.x.x.x.x.x.x.x.x.x.x.x.x.x.x.x.x.x.x.x.x.l.x.x.x.x.j.h.x.x.x.x.x.x.x.x.x.x.x.x.x.x.x.x.x.x.x.",
"j.x.x.x.x.x.x.j.x.x.x.x.x.x.x.x.j.x.x.x.x.x.x.x.x.x.x.x.x.j.x.x.x.x.x.x.x.x.x.x.x.x.x.x.x.x.x.x.x.x.",
"j.j.x.x.x.l.x.x.x.x.x.x.x.x.x.x.x.x.x.x.x.x.x.x.x.a.i.x.x.l.l.x.x.x.x.x.x.x.x.x.x.x.x.x.j.x.x.x.x.x.",
"z.z.x.x.x.x.x.j.x.x.x.x.x.x.x.x.k.z.x.x.x.x.x.x.z.a.>.g.x.f.x.j.x.x.x.x.x.x.x.x.x.z.x.x.g.x.x.x.x.x.",
"a.1.z.x.x.x.x.j.x.x.x.x.x.x.x.j.a.k.x.x.x.x.x.x.x.k.%.%.4.=.x.j.x.x.x.x.x.x.x.x.x.j.z.x.2.x.l.x.x.x.",
",.U x.j.x.x.x.x.x.x.x.x.x.x.x.l.1.f.k.x.x.x.x.x.x.k.$.T ;.Y z.x.x.x.x.x.x.x.x.x.j.x.x.z.-.z.k.x.x.x.",
"S 7.x.x.j.j.x.x.x.x.x.x.x.x.x.x.y.p.s.x.j.x.x.x.x.x.u.S P 8.x.x.x.x.x.x.x.x.x.x.j.x.k.l.y.f.y.x.x.x.",
"d.x.x.x.x.x.x.x.x.x.x.x.x.x.x.x.k.s.f.x.j.x.x.x.x.x.x.k.k.z.x.x.x.x.x.x.x.x.x.x.x.x.x.x.k.k.a.x.x.x."
};
