/* XPM */
static char *right21639765002[] = {
/* columns rows colors chars-per-pixel */
"50 50 75 1 ",
"  c #171716",
". c #181816",
"X c #191718",
"o c #181818",
"O c #630100",
"+ c #7C3931",
"@ c #000062",
"# c #B40700",
"$ c #B50801",
"% c #FF0800",
"& c #EF4339",
"* c #AD6B49",
"= c #C68D4A",
"- c #0000DE",
"; c #3939E7",
": c #9C8C8C",
"> c #A4B2BF",
", c #B6BBBF",
"< c #FFCD84",
"1 c #B3BCC1",
"2 c #B5BDD0",
"3 c #BDC6D7",
"4 c #BBC9D4",
"5 c #B7C6E5",
"6 c #C3C7C8",
"7 c #C5CACD",
"8 c #C5CCD3",
"9 c #CBCED2",
"0 c #CED2D4",
"q c #C4D5DF",
"w c #CCD0DB",
"e c #D0D3D5",
"r c #D1D6D9",
"t c #D5D9DD",
"y c #D9DEDF",
"u c #E7DFDD",
"i c #DEE0DF",
"p c #E8E0DE",
"a c #CFD6E0",
"s c #CEDBEE",
"d c #D5D8E1",
"f c #DCDFE2",
"g c #D6DDEC",
"h c #D9DEEA",
"j c #C8D7F6",
"k c #CFD8F9",
"l c #DBDEF1",
"z c #D1DFFC",
"x c #DDE2E5",
"c c #DDE1ED",
"v c #D7E3F1",
"b c #DEE6F3",
"n c #DDE3FD",
"m c #DEE9FB",
"M c #E1E2E4",
"N c #E8E7E5",
"B c #E1E5ED",
"V c #E6E9E9",
"C c #E9EBED",
"Z c #EEF0EF",
"A c #E2E6F4",
"S c #E5EAF4",
"D c #EAEDF4",
"F c #E3E7FD",
"G c #E5EAFB",
"H c #EAEDFC",
"J c #EDF1F4",
"K c #EDF2FC",
"L c #F2F3F4",
"P c #F7FBF6",
"I c #FDFDF6",
"U c #F2F5FD",
"Y c #FAF7FE",
"T c #F5FAFD",
"R c #FEFEFE",
/* pixels */
"YRRRIRYRRRRRRRRRRYRTRRTRRRRRRRRRRRRRRRRRRRRRRRTTIR",
"RRRIRRRRRRRRRRRRRIK0xYRRRRRRRRRRRRRRRIRRRRRRRRDrxR",
"RRRRRRRRRRRRRRRRRRit6RRRRRRRRRRIRTRRRRRRRRRRRRC89Z",
"RRRRUYRIRRRRRRRRRIRxLPRRRRIRRRRRTTRRRRRRRRRRRRIVZR",
"RTTHAKRTRRRRRRRRRRRIRRRRRRTRRRTKDKTRRRRRRRRRRRRRRR",
"RRKbATRRRRRRRRRRRRRRRRRRRRRRRRKAGLRRRRRRRIRRRRRRRR",
"RRUDKRRRRRRRRRRRRRRRRRRRRRRRRRUDYRRRRRRRRRRRRRRRRR",
"YRRRRRYRRRRRRRRRRRRRRRRRIRIRRRRTRRRRRRRRRRRRIRRRRR",
"RRRRIRRRRRRRRRRRRRRRRHGTRRRRRRRRRRRRRRRRRRRRRRRRRT",
"RRRRRRRRRRRRRRRRRRRRRJAKRRRIRIRRRRRRRRRRRRRRRRRRUH",
"RTRRRRRRRRRRRRRRRRRRRTLYRRRRRUYRRRRRRRRRRRRRRRRRIR",
"TUtRYRRRRRRRRRRRRRRRRRR###RRTR0RRRRRRRRRRRRRRRRRTR",
"T8etRRRRRRRRRRRRRRRRRR#%%%*RR6xtRRRRRRRRRRRRRRRRIR",
"TV0LRRRRRRRRRRRRRRRRR#%%%%&#TV0JRRRRRRRRRRRRRRRRII",
"RIRRRRRRRRRRRRRRRRR##%%&%#:<O##RRRRRRRRRRRRRRRRRRR",
"RRRRRRRIRRRRRRRRRRR#%%%&%#*:###RRRRRRRRRRRRRRRRRRR",
"RRITIRRRRRRRRRRRRR##%%&%%$O%%%$IRRRRRRRRRRRRRRRTRR",
"RCRPYRRRRRRRRRRRL###%%&%$O%%%$+RRRRRRRRRRRRRDRRRRR",
"nbRRRIRPRRRRRRIYA#%%%%%#$&&&p;=+RRRRRRRRIRRRhTRRRR",
"k2URYRRRRRRRRRRRn#%%%%$O===*p;<*RRRRRRRRRRRRgTKRRR",
"1TTRRRRYRRRRRRRRF#%%%#+O=<<=**<+RRRRRRRRIRRUSHSRRR",
"TTIIRRRRRRRRRRRRTK###++*O*<<* +TRRRRRRRRRRRYRKDRRR",
"RRPRRIRRRRRRRRRRRRT.o+*<O*<<+ .RRRRRRRRRRRRRRRTRRR",
"RYRIRRRIRRRRRRRRTRRROO+<<<<*+.IRRRRRRRRTRRIRRTRRRR",
"RRRRRRRRRUGGTRRRRRR+Oo+**=*+O:pRRRRRRTKbURRRRRRRRI",
"RRRRRRRRRIHKTRRRRRRRRR%%%#+@@.:RRRRRRYKSIRRRRRRTRR",
"RRRRRRRRRRYTRTIRRRRR@@%&%O%+*+:RRRRRRRTTRRRRRRRRRR",
"RRRRRRRRRRRRRRRRRROO-@&%#O%#@+RRRRRRRRRRRRRRRIRRRR",
"RRRRRRRRIRRRRRIRRX+O@+&%O--@@@RRRRRRIRRRRRRRRRRURR",
"RRRRRRRRRRRRRRYRRX++++==:;@@@@RRRRRRRRRRRRRRRRJrMR",
"RRRRRIRRRRRRRRRRR +OOuRuR:-;--@RRRRRRRRRRRRRRRZ79L",
"RRRIYRRRRRIRRRRIRRoOOpRRp:;;;;OO.YRRRRRRRRRRTRTxJR",
"RRTKGTRRRRRRRRRRRR +OuRRpp;;;+OOoKTRRRIRRRRRRRRRRT",
"RRDAAURRRRRRRRRRRRR.O*pR:-;;;O+OoTRRRRRRRRRRRRRRIR",
"RYUDLYRRRRRRRRRRYRYI oTTR@-;+O+oTRRRRRRRRRRRRRRRRR",
"RRRRRRRRRRRRRRRRRRYRRRRRRRR.OOOYRRRRRRRRRRRRRRRRRR",
"RRRIRRRRRRRRRRRRRIRIRUhTRRRRoooRRTRRRRRRRRRRRRRRRI",
"RRRRRRRRRRRRRRRRRRLRYAUFRRRPRRRRRRIRRRRRRRRRRRRRHG",
"RRIRRRRTRRRRRRRRRIRTRRVRRRRRRRLRRRRRRRRRRRRRRRRRRR",
"RLVURRRRRRRRRRRRRRRRRRRRRRRRRLNRRRRRRRRRRRRRRRRRRR",
"TwwxRRRRRRRRRRRRRRRRRRRRIRRRTw8xRRRRRRRRRRPRRRRRRR",
"TxdDIRIRRRRRRRRRRRRRRRRRRTRRRx0SRRRRRRRRRRRRRRRRRR",
"RRLRRRRRRRRRRRRRRRRRRRRRRRIRRTPRRRRRRRRRRRRRRRRRRR",
"IIRRRYRPRRRRRRRRRRIRRRRRTRRRRIIRRRRRRRRRRRRRRRRRRR",
"TTRRRRRIRRRRRRRRRRRRRRRRRHSRRYRRRRRRRRRRRYRRIRRRRR",
"RURRRRRRRRRRRRRRUTRRRRRRTDlLRKRIRRRRRRRRRRRRLRRRRR",
"HhTRIRRTRRRRRRRImTRRRRRRRUgsmgRPRRRRRRRRRIRTcRYRRR",
"k4RIRRRRRRRRRRRYvKTRRRRRRUa5j4RRRRRRRRRRIRTTcTURRR",
",VRRITRRRRRRRRRRSFHRTRRRRRC11DRRRRRRRRRRPRYYSHSRRR",
"KRRRRRRRRRRRRRRRUGKRIRRRRRRTUTRRRRRRRRRRRRRRKUGRRR"
};
