/* XPM */
static char *right11639765002[] = {
/* columns rows colors chars-per-pixel */
"50 50 76 1 ",
"  c gray9",
". c #161817",
"X c #171918",
"o c #181818",
"O c #630100",
"+ c #7C3931",
"@ c #000062",
"# c #B40700",
"$ c #B50801",
"% c #FF0800",
"& c #EF4339",
"* c #F0433B",
"= c #AD6B49",
"- c #C68D4A",
"; c #0000DE",
": c #3939E7",
"> c #3A3AE8",
", c #9C8C8C",
"< c #A4B2BF",
"1 c #B6BBBF",
"2 c #FFCD84",
"3 c #B3BCC1",
"4 c #B5BDD0",
"5 c #BDC6D7",
"6 c #BBC9D4",
"7 c #B7C6E5",
"8 c #C3C7CA",
"9 c #C5CACD",
"0 c #C5CCD3",
"q c #CBCED2",
"w c #CED2D4",
"e c #C4D5DF",
"r c #CCD0DB",
"t c #D0D3D5",
"y c #D1D6D9",
"u c #D5D9DD",
"i c #D9DEDF",
"p c #E7DFDD",
"a c #DEE0DF",
"s c #CFD6E0",
"d c #CEDBEE",
"f c #D5D8E1",
"g c #DCDFE2",
"h c #D6DDEC",
"j c #D9DEEA",
"k c #C8D7F6",
"l c #CFD8F9",
"z c #DBDEF1",
"x c #D1DFFC",
"c c #E8DFE0",
"v c #DDE2E5",
"b c #DCE0EC",
"n c #D7E3F1",
"m c #DEE6F2",
"M c #DDE4FF",
"N c #DEE9FB",
"B c #E4E5E5",
"V c #E1E6EE",
"C c #E6E9E9",
"Z c #E9EBED",
"A c #EEF0EF",
"S c #E3E6F4",
"D c #E4EAF4",
"F c #EAEDF4",
"G c #E5E7FD",
"H c #E6EBFA",
"J c #E9EDFC",
"K c #EDF1F4",
"L c #EDF2FC",
"P c #F2F3F4",
"I c #F7FBF6",
"U c #FDFEF6",
"Y c #F2F5FC",
"T c #FAF7FE",
"R c #F5FAFD",
"E c #FEFEFE",
/* pixels */
"TEEEUETEEEEEEEEEETEREREEEEEEEEEEEEEEEEEEEEEEEEERUE",
"EEEUEEEEEEEEEEEEEULwvEEUEEEEEEEEEEEEUEEEEEEEEEFwvE",
"EEEEEEEEEEEEEEEEEEau8EEEEEEUEEEEEREEEEEEEEEEEEZqqP",
"EEEEYTEUEEEEEEEEEUEvPIEEEEEEEEEEYREEEEEEEEEEEERCAE",
"RERLSLEEEEEEEEEEEUETEEEEEEEEEERLDYTEEEEEEEEEEEETEE",
"EELmmRREEEEEEEEEEEEEEEEEEEEEEELVDYEEEEEEEUEEEEEEEE",
"EELFLEEEEEEEEEEEEEEEEEEEEEEEEEYHTEEEEEEEEEEEEEEEEE",
"TEEEEEEEEEEEEEEEEEEEEEEEUEUEEEEREEEEEEEEEEEEUEEEEE",
"EEEEUEEEEEEEEEEEEEEERLHREEEEEEUEEEEEEEEEEEEEEEEEER",
"EEEEEEEEEEEEEEEEEEEEEL#$$ETUEEEEEEEEEEEEEEEEEEEEYJ",
"EREEEEEEEEEEEEEEEEEE#$%%%=EEEREEEEEEEEEEEEEEEEEEUU",
"RRuETEEEEEEEEEEEEEE#%%%%%&$EREwREEEEEEEEEEEEEEEEEE",
"R0tiEEEEEEEEEEEEEE$%%%%%%-=EE8guEEEEEEEEEEEEEEEEEE",
"RCqPEEEEEEEEEEEEE$$%%%&%#,2O###KEEEEEEEEEEEEEEEEUU",
"EUEEEEEEEEEEEEEEE$%%%%&%$=,#$$#EEEEEEEEEEEEEEEEEEE",
"EEEEEEEUEEEEEEEE$$%%%&%%#O%%%$EEEEEEEEEEEEEEEEEEEE",
"EEEUUEEEEEEEEEE$$$%%&&%$O%%%$+EUEEEEEEEEEEEEEEEEEE",
"UVEITEEEEEEEEEE$%%%%&%$$&&&p:-=+EEEEEEEEEEEEHEEUEE",
"MmEEEUEIEEEEEEE$%%%%$$O---=B:22=EEEEEEEEUEEEjREEEE",
"l4YETEEEEEEEEEE$%%%$$+O-22-==22+EEEEEEEEEEEEjYLEEE",
"3RREEEEEEEEEEEEE$$$+=+=O=22= +=EEEEEEEEEUEEYDJDEEE",
"RRUUEETEEEEEEEEERoo+==2O=22+ooETEEEEEEEEEEETELFEEE",
"EEIEEUEEEEEEEEEEEROO=+2222=+oUEEEEEEEEEREEEEEEREEE",
"EUEREEEUEEEEEEEEU+OoX+==-=+OEUUEEEEEEEEUEEUEEREEEE",
"EEEEEEEEEYJJRUEEEEE@:+$$O@,EppEEEEEEERLmIEEEEEEEEU",
"EEEEEEEEEUJJREEEEEE@:+%%%=EpEE,EEEEEETLHYEEEEEEREE",
"EEEEEEEEEETYEEETEET@;+%&&&EEEpcEEEEEEERREEEEEEEEEE",
"EEEEEEEEUEEEEUEEEEE@;+%**&EpEE,OUEEEEEEEEEEEEEEEEE",
"EEEEEEEEUEEEEEEEE@@;::+%%$Bp,,=O+EEEUEEEEEEEEERREE",
"EEEEEEEEEEEEEEo+O@::::::;@@@@-+OoEEEEEEEEEEEEEKyBE",
"EEEEEUEEEEEEEEo++O:::::;;@@:;+O+.EEEEEEEEEEEEEA9qP",
"EEEUTEEEEEEEEEo==+O::>:;@@::+O+oRTEEEEEEEEEEUERvFE",
"EEEJGREUEEEEEEo++=O:::;@o@@@+O.LHLEEEEUEEEEEEEEEUE",
"ETKSSREEEEEEEEEo++OO;@@XEE+OO+ mLLEEEEEEEEEEEEEEUE",
"ERYFYTEEEEEEEEEo++OOoUUEEEEoXXEmREEEEEEEEEEEEEEEEE",
"EEEEEEETEEEEEEEo+OOOEEEREEEEEERTEEEEEEEEEEEEEEEEEE",
"EEEUEEEEEEEEEEEEoOOXERbTEEEEETEEEEEEEEEEEEEEEEEEUU",
"EEEEEEEEEEEEEEEEEooEEbYHEEEEEEEEUEEEEEEEEEEEEEEELG",
"EETEEEEUEEEEEEEEETEUEEVEEEETEEIEEEEEEEEEEEEEEEEEEE",
"EPCTEEUEEEEEEEEEREEEEEEEEUEEEPBEEEEEEEEEEEEEEEEEEE",
"RrrvEEEEEEEEEEEEEEEEEEEEUEEEEe0vEEEEEEEEEEIEEEEEEE",
"UvfFIEUEEEEEEEEEEEEEEEEEEEIEEvwDEEEEEEEEEEEEEEEEEE",
"EEPEEEEEEEEEEEEEUEEEEEEEUEEEEUIUEEEEEEEEEEEEEEEEEE",
"UUEEEEEIEEEEEEEEEEEUEEEEEEEEEUEEEEEEEEEEEEEEEEEEEE",
"RUEEEEEEEEEEEEEEEEEEEEEEEHDEETEEEEEEEEEEETEEUEEEEE",
"RREETEEUEEEEEEEELEEEEEEERGjYELEUEEEEEEEEEEERYEEEEE",
"JhEEEEEUEEEEEEEUNYEEEEEEERhdNhEUEEEEEEEEEURESTUEEE",
"l6EUEEEEEEEEEEETnLREEEEEEYs7k6REEEEEEEEEUEERjYYEEE",
"3CEEUUEEEEEEEEEESGJEUEEEEED11VEEEEEEEEEEIETTSLSEEE",
"LEEEEEETEEEEEEEEYJLEUEEEEEEYRREEEEEEEEEEEEEEJYJEEE"
};
