/* XPM */
static char *up11639762447[] = {
/* columns rows colors chars-per-pixel */
"50 50 230 2 ",
"   c #1B0000",
".  c #180019",
"X  c #240706",
"o  c #390208",
"O  c #2D110E",
"+  c #22100E",
"@  c #3C0B14",
"#  c #361C1F",
"$  c #170122",
"%  c #190033",
"&  c #161538",
"*  c #150925",
"=  c #2A0636",
"-  c #2D0527",
";  c #450000",
":  c #4D0D0B",
">  c #520000",
",  c #5B0603",
"<  c #511000",
"1  c #50141C",
"2  c #640002",
"3  c #6D0000",
"4  c #670900",
"5  c #730201",
"6  c #730409",
"7  c #761819",
"8  c #660F18",
"9  c #78211A",
"0  c #4A1E21",
"q  c #4D0B3B",
"w  c #6B1021",
"e  c #422125",
"r  c #5F322F",
"t  c #5F3330",
"y  c #572F2F",
"u  c #6F3E30",
"i  c #743438",
"p  c #723F3E",
"a  c #692D28",
"s  c #64413D",
"d  c #040049",
"f  c #030051",
"g  c #1A0055",
"h  c #3D0A45",
"j  c #00007D",
"k  c #000474",
"l  c #090367",
"z  c #331064",
"x  c #471A45",
"c  c #4C2345",
"v  c #6F3E41",
"b  c #753D42",
"n  c #6F275B",
"m  c #46296B",
"M  c #6D4745",
"N  c #7A484F",
"B  c #840000",
"V  c #8A0000",
"C  c #980801",
"Z  c #901610",
"A  c #A80000",
"S  c #BF0000",
"D  c #AC1400",
"F  c #AA151A",
"G  c #B51213",
"H  c #932B18",
"J  c #BD2519",
"K  c #A7291A",
"L  c #841D29",
"P  c #A61A22",
"I  c #863C3D",
"U  c #AC262A",
"Y  c #BC2729",
"T  c #AA2A33",
"R  c #B6313B",
"E  c #AF3629",
"W  c #C80700",
"Q  c #D60100",
"!  c #DB0202",
"~  c #D8090A",
"^  c #D91406",
"/  c #C61618",
"(  c #D71219",
")  c #D30F12",
"_  c #EA0403",
"`  c #F30809",
"'  c #F41908",
"]  c #F40D18",
"[  c #E91B17",
"{  c #F71817",
"}  c #E51002",
"|  c #DB2B13",
" . c #FA291D",
".. c #F83A1A",
"X. c #EE3115",
"o. c #CD1723",
"O. c #E11C26",
"+. c #F41C21",
"@. c #C32925",
"#. c #D32827",
"$. c #DA3929",
"%. c #CE3136",
"&. c #FF272B",
"*. c #EB3729",
"=. c #FA3927",
"-. c #E82538",
";. c #FF2C35",
":. c #E7393B",
">. c #FF3138",
",. c #E7232D",
"<. c #EB4328",
"1. c #FD482E",
"2. c #FE493B",
"3. c #FD5039",
"4. c #EB4837",
"5. c #82275E",
"6. c #843D43",
"7. c #E53C48",
"8. c #FB3748",
"9. c #FE2E44",
"0. c #844549",
"q. c #A75B44",
"w. c #AE624A",
"e. c #9C5F64",
"r. c #BF476A",
"t. c #9A7672",
"y. c #D0594D",
"u. c #FB4D51",
"i. c #D57066",
"p. c #B0836C",
"a. c #CA8B72",
"s. c #000091",
"d. c #0C0894",
"f. c #24038C",
"g. c #0000AE",
"h. c #0000B5",
"j. c #0D00B2",
"k. c #0A13B5",
"l. c #1022A0",
"z. c #3B35B6",
"x. c #5118A5",
"c. c #51269E",
"v. c #644AB5",
"b. c #0E0ACE",
"n. c #1008E4",
"m. c #301DF5",
"M. c #0625E2",
"N. c #3829F6",
"B. c #3D32FF",
"V. c #4D19C3",
"C. c #543ADC",
"Z. c #5237F9",
"A. c #4A32F0",
"S. c #6C40DF",
"D. c #4046F4",
"F. c #6949EC",
"G. c #884A97",
"H. c #B7788D",
"J. c #8841A7",
"K. c #A26DD5",
"L. c gray52",
"P. c #A3998D",
"I. c #8F94B8",
"U. c #9896AA",
"Y. c #A284A0",
"T. c #ADADAD",
"R. c #EAB49A",
"E. c #FBB7A8",
"W. c #FFBFB4",
"Q. c #FFD1BB",
"!. c #BABDC5",
"~. c #BDC8CE",
"^. c #C4C5C4",
"/. c #CCCCCC",
"(. c #C1C8CE",
"). c #CCD4CF",
"_. c #C7CFD4",
"`. c #C9D6D8",
"'. c #D3D4D3",
"]. c #DBDCDB",
"[. c #D6D7D9",
"{. c #DBCFC3",
"}. c #EEDCDB",
"|. c #FBDBD7",
" X c #EAD0C7",
".X c #D5E1DD",
"XX c #FFEBD4",
"oX c #FFECDB",
"OX c #FFE4D6",
"+X c #FFF7DF",
"@X c #CDDFE1",
"#X c #D6DBE3",
"$X c #FFDDE2",
"%X c #E7DEE1",
"&X c #DAE7E8",
"*X c #D5F2E8",
"=X c #E4E4E4",
"-X c #E4E5EC",
";X c #E7ECE9",
":X c #EBEBEB",
">X c #E9E8E5",
",X c #FFE3E2",
"<X c #F1EAE6",
"1X c #FFEBE4",
"2X c #FEE4EB",
"3X c #FFEEEC",
"4X c #F5EDEA",
"5X c #EDF0EF",
"6X c #E2F8EC",
"7X c #F4F3EC",
"8X c #FFF2EC",
"9X c #FFFCED",
"0X c #F1FCEF",
"qX c #EDEDF3",
"wX c #E9E9F8",
"eX c #F2EEF4",
"rX c #FBEAFB",
"tX c #EDF5F3",
"yX c #EDFBF4",
"uX c #E7FDFB",
"iX c #EDFDFC",
"pX c #E8F7F6",
"aX c #F4F4F4",
"sX c #FFF5F3",
"dX c #F5FBF3",
"fX c #FEFBF5",
"gX c #F4F4FC",
"hX c #FEF4FD",
"jX c #F4FFFD",
"kX c #FEFEFE",
/* pixels */
"kXkXkXkXkXkXkXkXkXkXkXkXkXkXkXkXkXhXjXuXuXjXkXhXhXhXjXiXjXdXkXkXkXkXkXkXkXkXkXkXkXkXkXkXkXkXkXaXaXkX",
"kXkXkXkXkXkXkXkXkXkXkXkXkXkXkXkXhXkX;X@X&XiXkXkXkXkXjXiXjXkXkXfXkXkXkXkXkXkXkXkXkXkXkXkXkXkXaX[.-XdX",
"kXkXkXkXkXkXkXkXkXkXkXkXkXkXkXkXsXfX;X).`.yXkXkXkXkXjXjXkXfXfXhXkXkXkXkXkXkXkXkXkXkXkXkXkXkX=X/.[.;X",
"kXkXkXaXaXkXkXkXkXkXkXkXkXkXkXkXhXfXaX=X;XdXkXhXkXkXkXkXkXkXkXfXaXkXkXkXkXkXkXkXkXkXkXkXkXkXaX=X7XkX",
"kXkXaX:X:XaXkXkXkXkXkXkXkXkXkXkXjXdXdXkXkXkXkXkXkXhXkXkXkXjXjX5X5XaXkXkXkXkXkXkXkXkXkXkXkXkXkXkXkXkX",
"kXkXaX:X:XaXkXkXkXkXkXkXkXkXkXkXjXjXjXkXkX8X8XhXhXkXkXkXjXiXpX*X:XaXdXkXkXkXkXkXaXkXkXkXkXkXkXkXkXdX",
"kXkXkX:XaXkXkXkXkXkXkXkXkXkXkXkXkXjXjXjXdXdXkXkXkXkXkXjXjXjXiXwXaXgXkXkXkXkXkXkXkXkXkXkXkXkXkXkXkXkX",
"kXkXkXkXaXkXkXkXkXkXkXkXkXkXkXkXhXkXjXiXiXkXkXsXhXkXiXiXiXjXkXhXkXkXkXkXkXkXkXkXkXkXaXkXkXkXkXkXkXkX",
"kXkXkXkXkXkXkXkXkXkXkXkXkXkXkXkXhXrXkXiXuXpXaX<XfX>XjXiXjXgXrXhXkXkXkXkXkXkXkXkXkXkXkXkXkXkXkXkXdXkX",
"kXkXkXkXkXkXkXkXkXkXkXkXkXkXkXkXhXhXkXjX6X4X{.hXsXfX>XtXpXkXhXrXkXkXkXkXkXkXkXkXkXkXkXkXkXkXkXkXqXtX",
"kXkXaXkXkXkXkXkXkXkXkXkXkXkXkXkXeXgXkXkXfXsX$X$X$X2X3X8XfXhX2XhXkXkXkXkXkXkXkXkXkXkXkXkXkXkXkXkXdXkX",
"kX:X=XaXkXkXaXkXkXkXkXkXkXkXkXkXjXhX<X,X3X> R P Y P 6 2X1X2X}.sXkXkXkXkXkXkXkXkXkXkXkXkXkXkXkXkXkXkX",
":X[./.=XkXkXkXkXkXkXkXkXkXkXkXkXpX0XsX1X5 %.o.O.( ( / F 5 Q.Q.{.kXkXkXkXkXkXkXkXkXkXkXkXkXkXkXkXkXdX",
"kX=X[.=XkXkXkXkXkXkXkXkXkXkXkXkXdX9Xw Z G O.) ~ [ Q &.[ %.Z R.+XfXkXkXkXkXkXkXkXkXkXkXkXkXkXkXkXkXkX",
"kXkXaXkXkXkXkXaXkXkXkXkXkXkXkXkXfX|.T V ~ +.1.1.1.^ ` _ ! / H XXfXkXkXkXkXkXkXkXkXkXkXkXkXkXkXkXkXkX",
"aXkXkXkXkXkXkXaXkXkXkXkXkXkXkXkX3XI F W &.Q 3.<.*.1. .` { [ D XXsXkXkXkXkXkXkXkXkXkXkXkXkXkXkXkXkXkX",
"kXaXkXkXkXkXkXkXkXkXkXkXkXkXkXkXhXb C ) ^ X.3.4.<.....' ' ] ^ Z 3XkXkXkXkXkXkXkXkXkXkXkXkXkXkXkXkXkX",
"kXkXkXkXaXkXkXkXkXkXkXkXkXkXkXkXgXN , | ..1.4.:.u.<...' _ _ [ J 3XkXkXkXkXkXkXkXkXkXkXkXaXkXkXkXkXkX",
"=X>XaXkXkXaXaXkXkXkXkXkXkXkXkXjX#XhX6 @.u.<.:.:.y.7.2.[ ` ` ~ V 3XkXkXkXkXkXkXkXkXkXkX:X:XaXkXkXkXkX",
"^.[.:XkXkXkXkXkXkXkXkXkXkXkXkXkXuX%X; P %.*.u.-.8.7.-.W Q _ A T sXkXkXkXkXkXkXkXkXkXkXaX=X:XaXkXkXkX",
"'.%XaXkXkXkXkXkXkXkXkXkXkXkXkXdX*X&X0 L @.2. .u.8.-.-.>.{ [ F 2XfXkXkXkXkXkXkXkXkXkXkXaX:X:X:XkXkXkX",
"aXgXkXkXkXkXkXkXkXkXkXkXkXkXkXkX6XyXM E.E D =.=.8.9.;.>.' W Z |.fXkXkXkXkXkXkXkXkXkXkXkXkX:XaXkXkXkX",
"kXkXkXkXkXkXkXkXkXkXkXkXkXkXkXkXkX1Xu E.a., D | =.>.] ] } $.Q.9XkXkXkXkXkXkXkXkXkXkXkXkXkXaXaXkXkXkX",
"kXdXaXkXkXkXkXkXkXkXkXkXkXkXkXkX1X1XXXq.u < 4 3 J #./ ,.^ C XXXXfXkXkXkXkXkXkXkXkXaXkXkXkXkXkXkXkXkX",
"kXkXkXkXkXkXkXkXaXkX:XaXaXaXU. X|.i.K 6 w o ; : , > 8 2 B B y.7 sXeXkXkXkXaX=XaXkXkXkXkXkXkXkXkXkXkX",
"kXkXkXkXkXkXkXkXkXkX:X:XaXkX/.sX9 E G R n % m % . c - x 9 6 Z y.sXdXkXkXkXkX:X=XkXkXkXkXkXkXaXkXkXkX",
"kXkXkXkXkXkXkXkXkXkXaXkXkXkX^.,X5 @.%.r.K.z.j d.v.g c.J.5.w H w.t.kXkX:XkX:XkXaXkXkXkXkXkXkXkXkXkXkX",
"kXkXkXkXkXkXkXkXkXkXkXkXkXaXT. X2 U R 5.f.j.h.h.C.S.x.x.= H.a.p.fX^.aXkXkXkXkXkXkXkXkXaXkXkXkXkXkXkX",
"kXkXkXkXkXkXkXkXkXkXaXkXkXkX:XfX+X; 1 G.s.b.n.b.j.Z.Z.F.z Y.$XP.=XkXaXkXaXaXkXkXkXkXkXkXkXkXkXaXkXkX",
"kXkXkXkXkXkXkXkXkXkXaXkXkXkXkXfXXX8X- g b.n.m.N.A.N.N.k.f U.U._.[.L.:XkX:XkXkXkXkXkXkXkXkXkX:X[.=XaX",
"kXkXkXkXkXkXkXkXkXkXkXkXkXkXdXaX9XaX& l j.B.D.A.D.M.M.k.d hXI.I.U.dXkXkXkXaXkXkXkXkXkXkXkXkX:X).[.:X",
"kXkXkXkXkXkXkXkXkXkXkXkXkXkXkXkXdXdX& d s.f.f.c.z.l.s.k jXhXwXjXgXkX:XaXkXkXaXkXkXkXkXaXkXkXaX%X:XkX",
"kXkXkX:X:X:XkXkXkXkXkXkXkXkXkXkXjXkX* $ $ x x n x = * gXhXhXwXkXqXeXkXkXkXkXkXkXkXkXkXkXkXkXkXkXkXkX",
"kXkXaX:X:XaXkXkXkXkXkXkXkXkXkXkXkXgXhXe o o 6.6.w N 0 gXkXhXkX:XeXaXkXkXkXkXkXkXkXkXkXkXkXkXkXkXkXkX",
"kXkXaX:XaXkXkXkXkXkXkXkXkXkXkXkXjXhXkXX @ 1 i i i p X sX}.kXeX=XaXaXkXkXkXkXkXkXkXkXkXkXkXkXkXkXkXkX",
"kXkXaXkXkXkXkXkXkXkXkXkXkXkXkXkXkXkXhX# O r e.6.0.t.O fXkXhXaXkXkXkXkXkXkXkXkXkXkXkXkXkXkXkXkXkXkXkX",
"kXaXkXkXkXkXkXkXkXkXkXkXkXkXkXkXyXkX<X  0 v N p r s 9X8X4X7XkXkXkXkXkXkXkXkXkXkXkXkXkXkXkXkXkXkXkXkX",
"kXkXkXkXkXkXkXkXkXkXkXkXkXkXkXkXjX;XkX+ # y p r M   fXfXfXkX5X7XkXkXkXkXkXkXkXkXkXkXkXkXkXkXkXkX:X=X",
"kXkXaXkXkXkXkXkXkXkXkXkXkXkXkXkXdXjXkXfX  M M M X fXfX7XfX:XkXkXkXkXkXkXkXkXkXdXkXkXkXkXkXkXkXkXkXkX",
"kX:X:XaXkXkXkXaXkXkXkXkXkXkXkXkX0XkXkX<XkXX O O 8XfX<XfXkX0X;X5XkXkXgXkXkXkXkXkXkXkXkXkXkXkXkXkXkXkX",
"kX/.^.=XaXkXkXkXkXkXkXkXkXkXkXkXjXkXkXkXfXfXsXsXfX7XkXkX0X'.^.&XkXkXkXkXkXkXkXkXkXkXkXkXkXkXkXkXkXkX",
"kX&X%X:XkXkXkXkXkXkXkXkXkXkXkXkXdXkXkXkXkXkXfXfXfXdXkXjX0X.X].;XkXkXkXkXkXkXkXkXkXkXkXkXkXkXkXkXkXkX",
"kXaXaXkXkXkXkXkXkXkXkXkXkXkXkXkXkXjXkXkXhXkXkXkXkXkXkXdXdXdXdXhXkXkXkXkXkXkXkXkXkXkXkXkXkXkXkXkXkXkX",
"kXdXkXkXaXkXkXkXkXkXkXkXkXkXkXkXjXkXkXkXkXhXkXkXdXjXiXjXjXkXkXkXkXkXkXkXkXkXkXkXkXkXkXkXkXkXkXkXkXkX",
"kXkXkXkXaXkXkXkXkXkXkXkXkXkXkXkXhXkXkXkXkXhXkXkXiXpX&XjXkXtXhXkXkXkXkXkXkXkXkXkXkXkXkXkXkXkXkXkXkXkX",
"kXaXkXkXkXkXkXkXkXkXkXkXkXkXkXkXjXhXkXkXkXkXkXkXjXuX@XiXkX-XkXhXkXkXkXkXkXkXkXkXkXkXkXkXaXaXkXkXkXkX",
":X=XaXkXkXkXkXkXkXkXkXkXkXkXkXkXqXaXhXkXkXhXkXjXjXiX`.&X&X#XkXkXkXkXkXkXkXkXkXkXkXkXkXaX:XaXkXkXkXkX",
"'.[.eXkXkXkXkXkXkXkXkXkXkXkXkXkX-XwXhXkXkXkXkXkXjXjX~.~.~.'.kXhXkXkXkXkXkXkXkXkXkXkXkXaX:XqXkXkXkXkX",
"^.}.dXkXhXdXkXkXkXkXkXkXkXkXkXhXgXwXwXkXkXkXkXkXkXkX&X!.!.-XkXkXkXkXkXkXkXkXkXkXdXgXfXkX-XaX-XkXkXkX",
"=XaXkXkXkXkXkXkXkXkXkXkXkXkXkXkXgXwXgXhXjXkXkXkXgXkXkXqXqXkXkXdXkXkXkXkXkXkXkXkXkXdXkXkXwXhX-XkXkXkX"
};
