/* XPM */
static char *up21639762447[] = {
/* columns rows colors chars-per-pixel */
"50 50 229 2 ",
"   c #300211",
".  c #00002C",
"X  c #00023E",
"o  c #1D0031",
"O  c #130D34",
"+  c #330130",
"@  c #550000",
"#  c #53160B",
"$  c #571C16",
"%  c #4F0B16",
"&  c #630000",
"*  c #770302",
"=  c #6D0714",
"-  c #64221A",
";  c #480025",
":  c #421523",
">  c #520C39",
",  c #750422",
"<  c #6B0023",
"1  c #59222C",
"2  c #763527",
"3  c #763B38",
"4  c #6A282B",
"5  c #00004F",
"6  c #1B144D",
"7  c #000651",
"8  c #351C55",
"9  c #1D2746",
"0  c #252B45",
"q  c #010165",
"w  c #0E0D72",
"e  c #3C186B",
"r  c #351D78",
"t  c #231972",
"y  c #1B227D",
"u  c #362C69",
"i  c #490A4D",
"p  c #4D154F",
"a  c #6B1E52",
"s  c #5C2042",
"d  c #6E2C42",
"f  c #401073",
"g  c #4B296C",
"h  c #7A4D4A",
"j  c #5D5376",
"k  c #6B4169",
"l  c #636E74",
"z  c #9C0302",
"x  c #9C010F",
"c  c #930810",
"v  c #870811",
"b  c #A60508",
"n  c #A01600",
"m  c #BB1407",
"M  c #A71716",
"N  c #BA0C11",
"B  c #802F1E",
"V  c #AB2C17",
"C  c #912C20",
"Z  c #A72825",
"A  c #B23935",
"S  c #B22C2B",
"D  c #C90D08",
"F  c #D70603",
"G  c #CE1507",
"H  c #C81A16",
"J  c #D61D19",
"K  c #D11012",
"L  c #EC0605",
"P  c #F20D09",
"I  c #E61602",
"U  c #E61816",
"Y  c #FD181B",
"T  c #C7220B",
"R  c #DA261B",
"E  c #CE2D1E",
"W  c #E5260C",
"Q  c #E42618",
"!  c #F63318",
"~  c #F72C10",
"^  c #F11F26",
"/  c #C92A23",
"(  c #DD2923",
")  c #DA2225",
"_  c #D9352B",
"`  c #C73827",
"'  c #EB2623",
"]  c #EC3428",
"[  c #FB3926",
"{  c #FD3A33",
"}  c #FE3D3B",
"|  c #F73733",
" . c #F32F34",
".. c #8F4930",
"X. c #B14F32",
"o. c #BB5936",
"O. c #D14C3D",
"+. c #FE4129",
"@. c #EA4639",
"#. c #F3433B",
"$. c #FD423D",
"%. c #F94437",
"&. c #8F2E4F",
"*. c #9B3E49",
"=. c #A73841",
"-. c #F73840",
";. c #854651",
":. c #B65664",
">. c #956569",
",. c #A66D64",
"<. c #FA4445",
"1. c #DB635D",
"2. c #D16E5B",
"3. c #D56969",
"4. c #D6797B",
"5. c #C8736F",
"6. c #F37777",
"7. c #B0857E",
"8. c #C9886A",
"9. c #E08C70",
"0. c #0A0988",
"q. c #39278D",
"w. c #3331A8",
"e. c #3E39B3",
"r. c #2826AB",
"t. c #542C97",
"y. c #523091",
"u. c #543185",
"i. c #653897",
"p. c #463CB7",
"a. c #5032AD",
"s. c #57539F",
"d. c #2E33CA",
"f. c #372DE8",
"g. c #4D32CF",
"h. c #4539D8",
"j. c #492BCE",
"k. c #5738E6",
"l. c #4144D5",
"z. c #5B44D0",
"x. c #886A84",
"c. c #A56B93",
"v. c #977BB5",
"b. c #BD8A93",
"n. c #9D90AE",
"m. c #BC98A6",
"M. c #B6AFB2",
"N. c #A4A9BC",
"B. c #C79B97",
"V. c #D58E83",
"C. c #F89D96",
"Z. c #DCB79B",
"A. c #CAA59D",
"S. c #E9A884",
"D. c #EAB28D",
"F. c #DC94A0",
"G. c #E39AA3",
"H. c #CFAAB0",
"J. c #F4A7A6",
"K. c #FFBBAE",
"L. c #EDB6AB",
"P. c #FCCCBA",
"I. c #FAD1BC",
"U. c #E2C4BC",
"Y. c #9598C5",
"T. c #A79FCE",
"R. c #BDBBC9",
"E. c #B0BAD0",
"W. c #CAB9D3",
"Q. c #CFAFC6",
"!. c #BDD0D7",
"~. c gray80",
"^. c #C5C5C5",
"/. c #C9C1DB",
"(. c #D9CBDD",
"). c #CDD3D2",
"_. c #D3D4D3",
"`. c #DBDBDB",
"'. c #D9D7D8",
"]. c #D8CFC9",
"[. c #F6C4C2",
"{. c #F9D4CC",
"}. c #ECCAD5",
"|. c #FEDADB",
" X c #F7D9D7",
".X c #ECCECE",
"XX c #D9E9DF",
"oX c #EDEADA",
"OX c #FEE4DC",
"+X c #F9E8DD",
"@X c #FCF5DC",
"#X c #FFF2CB",
"$X c #D7D8E8",
"%X c #CCC6E2",
"&X c #E5DBE9",
"*X c #F7DCE5",
"=X c #EBD6EC",
"-X c #DBE4E6",
";X c #DDFFF3",
":X c #D5FAE9",
">X c #E4E4E4",
",X c #E5E4EC",
"<X c #E6EBE9",
"1X c #ECECEC",
"2X c #E9E9E8",
"3X c #FDEDEC",
"4X c #F7E8E9",
"5X c #EDF2ED",
"6X c #EBFDED",
"7X c #FFFDE3",
"8X c #FDF3EC",
"9X c #F3FBEC",
"0X c #FEFDED",
"qX c #F3F4EC",
"wX c #EAE2F3",
"eX c #E5EDF3",
"rX c #E8EBF7",
"tX c #FDE7F4",
"yX c #EDF2FE",
"uX c #ECFEFC",
"iX c #E9F6F4",
"pX c #F4F4F4",
"aX c #FEF3F4",
"sX c #F3FCF4",
"dX c #FDFCF4",
"fX c #F3F4FB",
"gX c #FEF5FC",
"hX c #F4FEFD",
"jX c #FEFEFE",
/* pixels */
"jXjXjXjXjXjXjXjXjXjXjXjXjXjXjXjXhXuXuXhXjXjXgXgXaXdXgXjXjXjXhXjXjXjXjXjXjXjXjXjXjXjXjXjXjXjXjXpXpXjX",
"jXjXjXjXjXjXjXjXjXjXjXjXjXjXjXjXjXhX<X$X-XpXjXgXgXgXjXjXjXjXjXjXjXjXjXjXjXjXjXjXjXjXjXjXjXjXpX'.2XsX",
"jXjXjXjXjXjXjXjXjXjXjXjXjXjXjXjXpXjX<X).).pXjXaXjXjXjXhXjXjXjXjXjXjXjXjXjXjXjXjXjXjXjXjXjXjX>X~._.2X",
"jXjXjXpXpXjXjXjXjXjXjXjXjXjXjXjXaXgXpX>X<XjXjXjXjXjXjXjXjXjXgXgXpXjXjXjXjXjXjXjXjXjXjXjXjXjXpX>X5XjX",
"jXjXpX1X1XpXjXjXjXjXjXjXjXjXjXjXgXgXdXgXjXjXhXhXuXhXjXjXjXjX8X3X4XpXjXjXjXjXjXjXjXjXjXjXjXjXjXjXjXjX",
"jXjXpX1X1XpXjXjXjXjXjXjXjXjXjXjXjXdXaXjXjXpXuXuXuXuXjXjXjXaXqX2X1XpXjXgXjXjXjXjXpXjXjXjXjXjXjXjXjXhX",
"jXjXjX1XpXjXjXjXjXjXjXjXjXjXjXjXuXuXdXgXgXgXhXhXhXjXgXjXjXhX6X:XiXsXjXjXjXjXjXjXjXjXjXjXjXjXjXjXjXjX",
"jXjXjXjXpXjXjXjXjXjXjXjXjXjXjXhX;XuXjXgXgXjXjXhXjXhXgXgXjXhX;X;XhXjXjXjXjXjXjXjXjXjXpXjXjXjXjXjXjXjX",
"jXjXjXjXjXjXjXjXjXjXjXjXjXjXjXjXhXhXhXjXgX1X1XhXhXhXjXjXhXeXuXuXjXjXjXjXjXjXjXjXjXjXjXjXjXjXjXjXsXpX",
"jXjXjXjXjXjXjXjXjXjXjXjXjXjXjXjXjXjXjXjXjX1XoXaXjX8XdXsXjXjXhXjXjXjXjXjXjXjXjXjXjXjXjXjXjXjXjXjX5XpX",
"jXjXpXjXjXjXjXjXjXjXjXjXjXjXjXjXgXgXjX6XdXdX|.{.L.aX8XjXjXfXgXtXjXjXjXjXjXjXjXjXjXjXjXjXjXjXjXjXjXjX",
"jX1X>XpXjXjXpXjXjXjXjXjXjXjXjXjXgXgXjX9X7X{.C.6.A 3.P.{.8XjX}.gXjXjXjXjXjXjXjXjXjXjXjXjXjXjXjXjXjXjX",
"1X'.~.>XjXjXjXjXjXjXjXjXjXjXjXjXhXuX9X+XK.1.J U F ) Z V. X^.'.&XjXjXjXjXjXjXjXjXjXjXjXjXjXjXjXjXjXhX",
"jX>X'.>XjXjXjXjXjXjXjXjXjXjXjXjXuXjX4X8.A m F L Y L K M 5.P.].2XjXjXjXjXjXjXjXjXjXjXjXjXjXjXjXjXjXjX",
"jXjXpXjXjXjXjXpXjXjXjXjXjXjXjXjXsXaXJ.S z D ~ ~ I [ U D S 4.|.aXjXjXjXjXjXjXjXjXjXjXjXjXjXjXjXjXjXjX",
"pXjXjXjXjXjXjXpXjXjXjXjXjXjXjXjXgX[.1./ U I U ! [ ! { -.H S 4.|.jXjXjXjXjXjXjXjXjXjXjXjXjXjXjXjXjXjX",
"pXjXjXgXjXjXjXjXjXjXjXjXjXjXjXjXaXJ.b I P Y  .-.{ { {  .@.V C L.dXjXjXpXjXjXjXjXjXjXjXjXjXjXjXjXjXjX",
"gXsXjXjXpXjXjXjXjXjXjXjXjXjXjXgXtXJ.m I P ^  .-.{ } <.| %.` V C.3XjXgXjXjXjXjXjXjXjXjXpXpXjXjXjXjXjX",
">X1XpXjXjXpXpXjXjXjXjXjXjXjXjXjX4XL.G I Q } <.<.| %.}  .{ J m 4.|.jXjXjXjXjXjXjXjXjXjXpX1X5XgXjXjXjX",
"^.`.5XjXjXjXjXjXjXjXjXjXjXjXjXjX=XG.T I Q @.@.| +.+.@.#.} U / 3. XjXjXjXjXjXjXjXjXjXjX1X1X1XpXjXjXjX",
"_.`.pXjXjXjXjXjXjXjXjXjXjXjXjXgXtXF.T G R ( ( Q ! W _ @.{ ' O.4. XpXjXjXjXjXjXjXjXjXjXpX1X1XpXpXjXjX",
"pXjXjXjXjXjXjXjXjXjXjXjXjXjXjXjXtXF./ G J R R [ ~ W E @._ ` 2.V. XsXjXjXjXjXjXjXjXjXjXjXpXpXpXsXjXjX",
"jXjXjXjXjXjXjXjXjXjXjXjXjXjXjXjX=XH.O.G G ) ' { +.+.] _ V o.S.Z.oXgXjXjXjXjXpXjXjXjXjXjXjXpXjXjXjXjX",
"jXjXpXjXjXjXjXjXjXjXjXjXjXjXjXjX1XU.2.n b K J ] W ! ) M * ..D.Z.4XjXjXjXjXjXjXjXjXjXpXjXjXjXjXjXjXjX",
"jXjXjXjXjXjXjXjXjXpX1X1XpXjXjXjXhX@X9.o.c v b N G b N c & 2 8.P.dXjXjXjXjXsX1X>XjXjXjXjXjXjXjXjXjXjX",
"jXjXjXjXjXjXjXjXjXpXpXpXjXjXjXjX6X7X#X9.@ % v * b z v , < = ..Z.dXjXjXjXjXgXpX1XjXjXjXjXjXjXpXjXjXjX",
"jXjXjXjXjXjXjXjXjXjXgXsXjXjXjXgX0X7XP.5.4 + ; % , < ; p > d ,.I.dXjXjXjXjXjXjXpXjXjXjXjXjXjXjXjXjXjX",
"jXjXjXjXjXjXjXjXjXjXjXjXjXjXjXdX8XK.2.*.k 8 + p a p e y.i c.|.0XjXjXjXjXjXjXjXjXjXjXjXpXjXjXjXjXjXjX",
"jXjXjXjXjXjXjXjXjXjXjXjXjXjXjXdXOX5.=.&.p t q.y.i.y.w.e.r v.gXdXjXjXjXjXjXjXjXjXjXjXjXjXjXjXjXpXjXjX",
"jXjXjXjXjXjXjXjXjXjXjXjXjXjXjXdX XJ.:.a r w.e.g.p.z.d.d.p.s.E.jXjXjXjXjXjXjXjXjXjXjXjXjXjXjX1X'.>XpX",
"jXjXjXjXjXjXjXjXjXjXjXjXjXjXjX3X+X8Xb.p r.h.d.h.j.k.f.f.l.y Y.jXgXjXjXjXjXjXjXjXjXjXjXjXjXjX1X_.'.1X",
"jXjXjXjXjXjXjXjXjXjXjXjXjXpX>X].8XdXH.u w r.l.h.g.j.k.g.w.7 T.gXfXjXjXjXjXjXjXjXjXjXjXpXjXjXpX`.1XjX",
"jXjXjX1X1X1XjXjXjXjXjXjXjXjX'.M.*XgXW.u q w 0.a.t.t.e f g o R.=XrXpXhXjXjXjXjXjXjXjXjXjXjXjXjXjXjXjX",
"jXjXpX1X1XpXjXjXjXjXjXjXjXjXqX'..X*Xn.6 7 w q w e 8 i s 3 + m.*X4XpXjXjXjXjXjXjXjXjXjXjXjXjXjXjXjXjX",
"jXjX5X5XpXjXjXjXjXjXjXjXjXjXjXaX@X7XM.0 . X X 6 o   1 ;.3 $ h H.3XjXjXjXjXjXjXjXjXjXjXjXjXjXjXjXjXjX",
"jXjXgXpXjXjXjXjXjXjXjXjXjXjXjXdX@X7X_.l 9 9 9 j x.: % - # # $ B.aXjXjXjXjXjXjXjXjXjXjXjXjXjXjXjXjXjX",
"jXjXjXjXjXjXjXjXjXjXjXjXjXjXjXdX7X@X0XXX!.E.N.(.*Xh # 2 2 2 $ B.jXjXjXjXjXjXjXjXjXjXjXjXjXjXjXjXjXjX",
"jXjXjXjXjXjXjXjXjXjXjXjXjXjXjXdX7XoX9XhXuXeX-XgX3X7.3 4 - $ $ B.jXjXsXjXjXjXjXjXjXjXjXjXjXjXjXjX1X>X",
"jXpXjXjXjXjXjXjXjXjXjXjXjXjXjXjXjXdXjXhXuXeXrXgXpX{.>.$   % >.tXgXjXjXjXjXjXjXjXjXjXjXjXjXjXjXjXjXjX",
"jX1X>XpXjXjXjXpXjXjXjXjXjXjXjXjXjXgXjXhXhXhXhXpX3XgX X.X[.U.*XgXgXjXjXjXjXjXjXjXjXjXjXjXjXjXjXjXjXjX",
"jX_.^.>XjXjXjXjXjXjXjXjXjXjXjXjXjXjXjXjXjXjXhXjXjX8XjXgXgX(.W.&XjXjXjXjXjXjXjXjXjXjXjXjXjXjXjXjXjXjX",
"jX>X`.pXjXjXjXgXjXjXjXjXjXjXjXjXgXjXjXjXjXjXjXhXjXdXdXjXpX,X$XrXjXjXjXjXjXjXjXjXjXjXjXjXjXjXjXjXjXjX",
"jXpXpXjXpXjXjXsXjXjXjXjXjXjXjXjXjXgXjXdXjXdXdXdXsXdXsXhXhXuXuXhXjXjXjXjXjXjXjXjXjXjXjXjXjXjXjXjXjXjX",
"jXpXjXjXpXjXjXjXjXjXjXjXjXjXjXjXjXdXdXdX0X0X0X9X9X9X6XhXhXhXhXhXjXjXjXjXjXjXjXjXjXjXjXjXjXjXjXjXjXjX",
"jXjXjXjXpXjXjXjXjXjXjXjXjXjXjXjXjXdXdXdX0X0X0XdX6X5XXXhXhXiXhXhXjXjXjXjXjXjXjXjXjXjXjXjXjXjXjXjXjXjX",
"jXpXjXjXjXjXjXjXjXjXjXjXjXjXjXjXuXhXjXdXdX0XdXjXjXiX`.hXhX,XjXjXjXjXjXjXjXjXjXjXjXjXjXjXpXpXjXjXjXjX",
"1X>XpXjXjXjXjXjXjXjXjXjXjXjXjXjXeXuXhXjXjXjXjXjXjXjX$X$XwX=XgXgXjXjXjXjXjXjXjXjXjXjXjXpX5XpXjXjXjXjX",
"_.'.pXjXjXjXjXjXjXjXjXjXjXjXjXjX-XrXhXjXjXgXgXjXgXgX%X/./.(.gXgXjXjXjXjXjXjXjXjXjXjXjXpXwX5XjXjXjXjX",
"^.`.jXjXjXpXjXjXjXjXjXjXjXjXjXhXyXrXyXgXjXjXjXjXjXjXwXR.R.,XjXjXjXjXjXjXjXjXjXjXdXpXjXjXwXpX2XhXjXjX",
">XpXjXjXjXjXjXjXjXjXjXjXjXjXjXjXfXrXyXgXjXjXjXjXpXjXjXrXpXjXjXpXjXjXjXjXjXjXjXjXjXsXhXgXrXfXwXjXjXjX"
};
